<?xml version="1.0" encoding="UTF-8"?>
<svg width="1350px" height="557px" viewBox="0 0 1350 557" version="1.1" xmlns="http://www.w3.org/2000/svg" xmlns:xlink="http://www.w3.org/1999/xlink">
    <title>identifier-negative-v</title>
    <g id="Page-1" stroke="none" stroke-width="1" fill="none" fill-rule="evenodd">
        <g id="identifier-negative-v" transform="translate(0.000000, 0.713651)" fill="#FFFFFF" fill-rule="nonzero">
            <path d="M714.927,104.575349 C715.81,102.737349 715.62,100.492349 714.704,98.6703495 C713.247,95.7813495 710.287,94.0853495 707.402,92.8913495 C701.433,90.4243495 694.95,89.5133495 688.507,89.3383495 C676.062,88.9433495 663.662,91.0253495 652.028,95.4623495 C639.552,100.289349 628.911,107.313349 618.644,115.626349 C613.952,119.414349 605.994,124.214349 600.291,119.753349 C594.461,115.200349 598.413,107.870349 601.911,102.920349 C606.021,97.1103495 611.975,92.5333495 618.087,88.9923495 C627.085,83.7713495 637.252,80.8853495 647.32,78.5303495 C657.893,76.0423495 668.789,75.3463495 679.554,74.0453495 C688.933,72.9153495 698.786,72.8033495 706.86,67.1763495 C718.89,58.7843495 713.001,46.2013495 702.014,40.7493495 C688.881,34.2343495 674.34,32.2093495 659.831,33.6143495 C654.69,34.1153495 649.576,34.8713495 644.503,35.8303495 C638.303,37.0003495 620.419,39.2373495 624.156,27.3183495 C625.027,24.5333495 627.208,22.3523495 629.58,20.6653495 C642.167,11.7073495 657.679,9.39134946 672.832,9.18434946 C685.886,8.99934946 698.881,10.9813495 711.286,15.0503495 C721.72,18.4883495 731.1,23.9953495 739.49,31.0753495 C746.44,36.9483495 751.91,44.4183495 759.39,49.6753495 C763.18,52.3413495 769.19,52.8583495 772.68,49.3523495 C776.76,45.2623495 775.25,38.7513495 772.3,34.5333495 C768.37,28.8983495 762.13,24.9273495 756.41,21.3213495 C738,9.72534946 716.37,3.62534946 694.886,1.15734946 C684.129,-0.102650541 673.275,-0.334650541 662.474,0.465349459 C647.428,1.61534946 632.453,4.44434946 618.199,9.45134946 C608.19,12.9603495 598.158,17.3263495 589.391,23.3793495 C582.813,27.9033495 575.416,34.5493495 573.756,42.7313495 C571.766,52.4843495 578.766,61.0363495 588.393,62.2903495 C594.147,63.0423495 599.973,61.5813495 605.417,59.5643495 C617.275,55.1863495 628.84,49.9573495 640.961,46.2923495 C647.328,44.3703495 653.91,42.4323495 660.615,42.5633495 C665.232,42.6553495 672.904,43.6623495 675.443,48.2143495 C682.375,60.6543495 651.081,66.2733495 644.69,68.3183495 C634.654,71.5343495 624.55,74.6863495 615.118,79.4613495 C595.647,89.3103495 578.293,104.010349 570.151,124.711349 C566.923,132.905349 567.266,143.096349 572.176,150.577349 C577.501,158.687349 588.492,161.839349 597.35,157.792349 C603.431,155.007349 605.572,150.983349 606.579,149.208349 C611.39,140.760349 616.205,127.843349 633.046,116.000349 C642.47,109.366349 653.337,105.070349 664.75,103.468349 C676.162,101.865349 687.792,103.002349 698.679,106.784349 C702.714,108.180349 707.346,109.601349 711.493,107.775349 C712.959,107.164349 714.168,106.064349 714.915,104.663349 L714.927,104.575349 Z" id="Path"></path>
            <path d="M593.633,175.791349 C591.599,175.946349 589.749,177.232349 588.631,178.939349 C586.852,181.645349 586.868,185.055349 587.274,188.151349 C588.117,194.542349 590.577,200.623349 593.641,206.293349 C599.522,217.268349 607.524,226.965349 617.183,234.822349 C627.609,243.211349 639.022,248.913349 651.359,253.653349 C656.982,255.810349 665.116,260.298349 664.093,267.481349 C663.066,274.803349 654.741,275.042349 648.704,274.493349 C641.617,273.840349 634.681,270.971349 628.556,267.449349 C619.523,262.256349 611.962,254.898349 604.879,247.361349 C597.437,239.450349 591.384,230.365349 584.882,221.698349 C579.215,214.137349 574.193,205.665349 565.283,201.490349 C552,195.266349 544.045,206.663349 544.817,218.896349 C545.74,233.525349 551.26,247.150349 559.728,258.989349 C562.729,263.187349 565.944,267.239349 569.311,271.154349 C573.421,275.930349 584.301,290.307349 572.096,293.041349 C569.251,293.678349 566.27,292.882349 563.62,291.672349 C549.569,285.249349 539.811,272.969349 532.051,259.956349 C525.364,248.743349 520.585,236.498349 517.908,223.719349 C515.664,212.975349 515.747,202.091349 517.677,191.279349 C519.293,182.321349 523.026,173.853349 523.841,164.756349 C524.239,160.140349 521.689,154.684349 516.921,153.411349 C511.35,151.914349 506.455,156.479349 504.275,161.143349 C501.362,167.367349 501.039,174.752349 500.777,181.513349 C499.941,203.253349 505.468,225.033349 514.076,244.878349 C518.364,254.824349 523.592,264.338349 529.687,273.291349 C538.203,285.747349 548.144,297.295349 559.605,307.140349 C567.651,314.053349 576.446,320.559349 586.056,325.135349 C593.263,328.570349 602.718,331.654349 610.633,328.995349 C620.064,325.812349 623.976,315.509349 620.251,306.543349 C618.027,301.183349 613.848,296.869349 609.384,293.165349 C599.646,285.090349 589.351,277.681349 580.115,269.017349 C575.276,264.477349 570.297,259.729349 567.058,253.860349 C564.826,249.817349 561.865,242.665349 564.539,238.193349 C571.845,225.972349 592.355,250.262349 597.326,254.775349 C605.125,261.858349 612.917,269.025349 621.764,274.807349 C640.033,286.746349 661.443,294.426349 683.445,291.123349 C692.156,289.822349 700.811,284.430349 704.834,276.439349 C709.192,267.776349 706.426,256.673349 698.491,251.030349 C693.043,247.154349 688.487,247.317349 686.445,247.329349 C676.724,247.385349 663.13,249.677349 644.45,241.014349 C633.998,236.168349 624.848,228.904349 617.757,219.823349 C610.666,210.742349 605.837,200.104349 603.669,188.788349 C602.873,184.590349 601.775,179.870349 598.122,177.192349 C596.858,176.228349 595.301,175.731349 593.712,175.783349 L593.633,175.791349 Z" id="Path"></path>
            <path d="M715.95,245.236349 C717.1,246.916349 719.14,247.879349 721.18,247.994349 C724.41,248.177349 727.36,246.462349 729.84,244.564349 C734.95,240.636349 738.99,235.467349 742.36,229.975349 C748.93,219.394349 753.32,207.613349 755.3,195.318349 C757.35,182.103349 756.59,169.372349 754.53,156.320349 C753.59,150.351349 753.4,141.082349 760.13,138.361349 C766.99,135.575349 771.36,142.674349 773.89,148.182349 C776.88,154.648349 777.87,162.090349 777.87,169.153349 C777.87,179.564349 775.3,189.795349 772.3,199.700349 C769.17,210.102349 764.34,219.887349 760.07,229.852349 C756.37,238.535349 751.53,247.127349 752.37,256.912349 C753.62,271.529349 767.46,272.722349 777.68,265.933349 C789.88,257.819349 798.91,246.239349 804.95,232.976349 C807.08,228.276349 808.98,223.469349 810.69,218.594349 C812.78,212.625349 819.78,196.035349 828.24,205.231349 C830.23,207.376349 831.02,210.357349 831.29,213.254349 C832.75,228.634349 827,243.223349 819.6,256.450349 C813.24,267.849349 805.02,278.112349 795.3,286.821349 C787.1,294.144349 777.64,299.504349 767.32,303.237349 C758.75,306.317349 749.55,307.320349 741.26,311.160349 C737.06,313.110349 733.62,318.064349 734.89,322.827349 C736.39,328.399349 742.78,330.361349 747.92,329.915349 C754.76,329.322349 761.32,325.912349 767.3,322.752349 C786.55,312.608349 802.65,296.929349 815.53,279.555349 C822,270.868349 827.62,261.584349 832.33,251.830349 C838.86,238.225349 843.87,223.839349 846.69,208.996349 C848.65,198.569349 849.87,187.702349 849.05,177.088349 C848.41,169.130349 846.36,159.400349 840.1,153.876349 C832.64,147.286349 821.75,149.061349 815.85,156.769349 C812.32,161.378349 810.67,167.152349 809.69,172.874349 C807.57,185.342349 806.3,197.945349 803.41,210.281349 C801.9,216.740349 800.28,223.413349 796.82,229.163349 C794.43,233.119349 789.72,239.255349 784.51,239.180349 C770.27,238.961349 781.05,209.051349 782.47,202.493349 C784.71,192.198349 787.02,181.864349 787.6,171.310349 C788.8,149.523349 784.75,127.139349 770.89,109.729349 C765.41,102.836349 756.41,98.0373495 747.48,98.5503495 C737.8,99.1073495 729.57,107.054349 728.65,116.744349 C728.02,123.402349 730.44,127.266349 731.47,129.029349 C736.38,137.421349 745.16,148.047349 746.99,168.557349 C748.03,180.036349 746.33,191.600349 742.02,202.290349 C737.7,212.981349 730.91,222.491349 722.19,230.035349 C718.96,232.821349 715.43,236.135349 714.927,240.640349 C714.723,242.216349 715.07,243.814349 715.91,245.161349 C715.93,245.187349 715.94,245.212349 715.95,245.236349 L715.95,245.236349 Z" id="Path"></path>
            <path d="M181.094,418.613349 C181.094,418.613349 161.899,473.173349 155.928,490.000349 C155.928,490.000349 142.435,527.703349 141.47,530.738349 C140.206,534.718349 137.251,542.977349 133.072,542.977349 C127.628,542.977349 124.414,533.862349 123.2,530.738349 C119.22,520.429349 117.528,508.796349 115.887,497.900349 C114.021,485.459349 112.993,472.906349 112.812,460.326349 C112.749,455.815349 113.483,451.328349 114.981,447.072349 L124.932,418.593349 L100.801,418.593349 C100.801,418.593349 81.596,473.153349 75.626,489.980349 C75.626,489.980349 62.133,527.683349 61.167,530.718349 C59.914,534.698349 56.948,542.957349 52.779,542.957349 C47.326,542.957349 44.112,533.843349 42.908,530.718349 C38.927,520.409349 37.226,508.777349 35.584,497.880349 C31.751,471.602349 31.46,444.929349 34.718,418.573349 L0,418.573349 C0,418.573349 26.081,501.552349 33.833,520.777349 C37.664,530.320349 47.346,555.764349 61.695,555.764349 C76.044,555.764349 80.949,543.535349 85.577,530.698349 C87.935,524.200349 94.711,504.936349 102.005,484.168349 C107.737,501.513349 112.732,516.598349 114.145,520.777349 C117.439,530.519349 127.668,555.764349 142.007,555.764349 C156.346,555.764349 161.272,543.535349 165.889,530.698349 C171.76,514.478349 205.294,418.573349 205.294,418.573349 L181.094,418.613349 Z" id="Path"></path>
            <path d="M756.16,423.548349 L756.16,553.207349 L734.03,553.207349 L734.03,418.613349 C745.57,418.613349 794.14,418.364349 803.68,419.130349 C814.63,420.006349 825.58,421.857349 833.78,429.847349 C838.08,434.046349 840.89,439.679349 840.63,445.768349 C839.7,468.307349 812.13,474.238349 795.32,480.676349 C792.6,481.721349 789.55,483.114349 788.7,485.900349 C787.84,488.686349 789.46,491.413349 791.03,493.781349 C805.72,516.011349 822.73,537.017349 843.77,553.386349 L812.16,553.386349 C812.16,553.386349 804.47,546.182349 801.22,542.510349 C790.19,530.336349 780.46,517.057349 772.16,502.886349 C770.33,499.702349 768.52,496.060349 769.45,492.507349 C770.23,489.522349 772.74,487.402349 775.25,485.671349 C787.73,477.133349 806.45,474.437349 814.44,460.267349 C819.62,451.062349 818.51,438.504349 810.84,430.992349 C804.53,424.812349 794.83,423.608349 786.4,423.459349 C776.66,423.280349 766.85,423.588349 757.14,423.588349 L756.16,423.548349 Z" id="Path"></path>
            <path d="M467.219,418.613349 L433.964,418.613349 C457.507,455.839349 463.736,495.642349 462.015,536.739349 C457.159,533.753349 445.338,527.654349 420.709,485.930349 C409.953,467.690349 406.42,461.541349 395.275,443.540349 C388.618,432.803349 380.14,416.175349 365.343,416.175349 C358.696,416.175349 355.393,418.643349 355.393,418.643349 L355.393,553.376349 L388.638,553.376349 C365.095,516.151349 358.875,476.348349 360.597,435.251349 C367.473,435.251349 388.459,475.054349 394.489,486.000349 C401.166,498.010349 434.7,555.864349 457.268,555.864349 C457.448,555.864349 457.079,555.864349 457.268,555.864349 C463.916,555.864349 467.219,553.396349 467.219,553.396349 L467.219,418.613349 Z" id="Path"></path>
            <path d="M271.824,416.364349 C232.728,416.364349 201.024,447.510349 201.024,485.930349 C201.024,524.350349 232.728,555.486349 271.824,555.486349 C310.921,555.486349 342.624,524.340349 342.624,485.930349 C342.624,447.520349 310.941,416.364349 271.824,416.364349 Z M272.421,550.878349 C248.818,550.878349 229.683,521.822349 229.683,485.979349 C229.683,450.137349 248.818,421.081349 272.421,421.081349 C296.024,421.081349 315.209,450.137349 315.209,485.979349 C315.209,521.822349 296.014,550.878349 272.421,550.878349 L272.421,550.878349 Z" id="Shape"></path>
            <path d="M954.41,553.346349 L954.41,520.161349 C932.06,543.296349 906.26,549.545349 881.54,548.112349 L881.54,418.663349 L858.65,418.663349 L858.65,553.316349 L954.41,553.346349 Z" id="Path"></path>
            <path d="M522.066,418.613349 L486.532,418.613349 L486.532,553.346349 L522.086,553.346349 C580.796,553.346349 601.175,523.126349 601.175,485.940349 C601.175,448.754349 580.766,418.613349 522.066,418.613349 Z M522.723,548.809349 C518.221,548.809349 513.743,548.155349 509.429,546.868349 L509.429,546.868349 L509.429,425.131349 C513.741,423.828349 518.219,423.157349 522.723,423.141349 C564.218,423.141349 576.457,451.261349 576.457,485.960349 C576.457,520.658349 564.218,548.809349 522.723,548.809349 L522.723,548.809349 Z" id="Shape"></path>
            <path d="M1048.16,505.652349 C1055.81,527.305349 1064.96,553.346349 1064.96,553.346349 L1090.09,553.346349 L1049.68,441.221349 C1045.03,428.385349 1040.07,416.155349 1025.79,416.155349 C1011.51,416.155349 1001.26,441.400349 997.93,451.142349 C994.12,462.436349 964.1,553.346349 964.1,553.346349 L998.82,553.346349 C996.93,537.523349 996.26,521.578349 996.83,505.652349 L1048.16,505.652349 Z M999.75,474.039349 C1001.4,463.163349 1003.07,451.530349 1007.08,441.201349 C1008.28,438.077349 1011.5,428.962349 1016.95,428.962349 C1021.12,428.962349 1024.08,437.241349 1025.34,441.201349 C1026.33,444.236349 1039.79,481.940349 1039.79,481.940349 C1041.36,486.328349 1043.78,493.283349 1046.6,501.174349 L997.05,501.174349 C997.5,492.126349 998.41,483.081349 999.75,474.039349 L999.75,474.039349 Z" id="Shape"></path>
            <path d="M712.753,553.346349 L712.544,520.160349 C690.185,543.296349 664.592,549.545349 639.904,548.112349 L639.904,487.651349 C654.83,486.656349 670.383,490.338349 683.926,504.349349 L684.036,487.502349 L684.036,484.517349 L683.926,467.650349 C670.383,481.661349 654.86,485.323349 639.904,484.348349 L639.904,423.797349 C664.512,422.305349 687.18,426.633349 709.559,449.769349 L709.768,418.613349 L638.053,418.663349 L616.987,418.663349 L616.987,553.316349 L639.874,553.316349 L639.874,553.257349 L712.753,553.346349 Z" id="Path"></path>
            <path d="M1212.96,418.613349 L1179.71,418.613349 C1203.25,455.839349 1209.47,495.642349 1207.75,536.739349 C1202.9,533.753349 1191.08,527.654349 1166.46,485.930349 C1155.69,467.690349 1152.17,461.541349 1141.01,443.540349 C1134.37,432.803349 1125.91,416.175349 1111.08,416.175349 C1104.43,416.175349 1101.13,418.643349 1101.13,418.643349 L1101.13,553.376349 L1134.38,553.376349 C1110.83,516.151349 1104.61,476.348349 1106.35,435.251349 C1113.21,435.251349 1134.21,475.054349 1140.24,486.000349 C1146.9,498.010349 1180.44,555.864349 1203.01,555.864349 C1203.19,555.864349 1202.83,555.864349 1203.01,555.864349 C1209.65,555.864349 1212.96,553.396349 1212.96,553.396349 L1212.96,418.613349 Z" id="Path"></path>
            <path d="M1270.89,418.613349 L1235.37,418.613349 L1235.37,553.346349 L1270.91,553.346349 C1329.62,553.346349 1350,523.126349 1350,485.940349 C1350,448.754349 1329.59,418.613349 1270.89,418.613349 Z M1271.55,548.809349 C1267.05,548.809349 1262.57,548.155349 1258.25,546.868349 L1258.25,546.868349 L1258.25,425.131349 C1262.57,423.828349 1267.04,423.157349 1271.55,423.141349 C1313.04,423.141349 1325.28,451.261349 1325.28,485.960349 C1325.28,520.658349 1313.04,548.809349 1271.55,548.809349 L1271.55,548.809349 Z" id="Shape"></path>
        </g>
    </g>
</svg>