<svg width="1921" height="1080" viewBox="0 0 1921 1080" fill="none" xmlns="http://www.w3.org/2000/svg">
<rect width="1920" height="1080" transform="translate(0.228516)" fill="#0E152C"/>
<path d="M685.572 472.603C685.572 472.603 666.377 527.163 660.406 543.99C660.406 543.99 646.913 581.694 645.948 584.729C644.684 588.709 641.729 596.968 637.55 596.968C632.106 596.968 628.892 587.853 627.678 584.729C623.698 574.42 622.006 562.787 620.365 551.891C618.499 539.449 617.471 526.896 617.29 514.317C617.227 509.806 617.961 505.318 619.459 501.063L629.41 472.583H605.279C605.279 472.583 586.074 527.143 580.104 543.97C580.104 543.97 566.611 581.674 565.645 584.709C564.392 588.689 561.426 596.948 557.257 596.948C551.804 596.948 548.59 587.833 547.386 584.709C543.405 574.4 541.704 562.767 540.062 551.871C536.229 525.593 535.938 498.919 539.196 472.564H504.478C504.478 472.564 530.559 555.543 538.311 574.768C542.142 584.311 551.824 609.755 566.173 609.755C580.522 609.755 585.427 597.525 590.055 584.689C592.413 578.191 599.189 558.926 606.483 538.159C612.215 555.503 617.21 570.588 618.623 574.768C621.917 584.51 632.146 609.755 646.485 609.755C660.824 609.755 665.75 597.525 670.367 584.689C676.238 568.469 709.772 472.564 709.772 472.564L685.572 472.603Z" fill="white"/>
<path d="M1260.64 477.539V607.197H1238.51V472.603C1250.05 472.603 1298.62 472.355 1308.16 473.121C1319.11 473.997 1330.05 475.847 1338.26 483.838C1342.56 488.037 1345.37 493.669 1345.11 499.759C1344.17 522.297 1316.61 528.228 1299.79 534.666C1297.08 535.711 1294.03 537.104 1293.18 539.89C1292.32 542.677 1293.94 545.403 1295.5 547.771C1310.2 570.001 1327.21 591.007 1348.24 607.376H1316.64C1316.64 607.376 1308.95 600.172 1305.69 596.5C1294.67 584.326 1284.94 571.048 1276.64 556.876C1274.81 553.692 1273 550.05 1273.93 546.498C1274.71 543.513 1277.21 541.393 1279.73 539.662C1292.21 531.124 1310.93 528.427 1318.92 514.257C1324.1 505.053 1322.99 492.495 1315.32 484.982C1309.01 478.803 1299.31 477.599 1290.88 477.449C1281.14 477.27 1271.32 477.579 1261.62 477.579L1260.64 477.539Z" fill="white"/>
<path d="M971.697 472.604H938.442C961.985 509.83 968.214 549.633 966.493 590.729C961.637 587.744 949.816 581.644 925.187 539.921C914.431 521.681 910.898 515.531 899.753 497.53C893.096 486.794 884.618 470.166 869.821 470.166C863.174 470.166 859.871 472.634 859.871 472.634V607.367H893.116C869.573 570.141 863.353 530.338 865.075 489.242C871.951 489.242 892.937 529.045 898.967 539.99C905.644 552.001 939.178 609.855 961.746 609.855C961.926 609.855 961.557 609.855 961.746 609.855C968.394 609.855 971.697 607.387 971.697 607.387V472.604Z" fill="white"/>
<path d="M776.302 470.355C737.206 470.355 705.502 501.5 705.502 539.92C705.502 578.34 737.206 609.476 776.302 609.476C815.399 609.476 847.102 578.33 847.102 539.92C847.102 501.51 815.419 470.355 776.302 470.355ZM776.899 604.869C753.296 604.869 734.161 575.813 734.161 539.97C734.161 504.127 753.296 475.071 776.899 475.071C800.502 475.071 819.687 504.127 819.687 539.97C819.687 575.813 800.492 604.869 776.899 604.869V604.869Z" fill="white"/>
<path d="M1458.89 607.337V574.151C1436.54 597.287 1410.73 603.536 1386.02 602.103V472.653H1363.13V607.307L1458.89 607.337Z" fill="white"/>
<path d="M1026.54 472.604H991.01V607.337H1026.56C1085.27 607.337 1105.65 577.116 1105.65 539.93C1105.65 502.744 1085.24 472.604 1026.54 472.604ZM1027.2 602.799C1022.7 602.799 1018.22 602.145 1013.91 600.859V600.859V479.121C1018.22 477.818 1022.7 477.148 1027.2 477.131C1068.7 477.131 1080.93 505.252 1080.93 539.95C1080.93 574.649 1068.7 602.799 1027.2 602.799V602.799Z" fill="white"/>
<path d="M1552.64 559.643C1560.28 581.296 1569.44 607.337 1569.44 607.337H1594.56L1554.15 495.212C1549.51 482.375 1544.55 470.146 1530.27 470.146C1515.99 470.146 1505.73 495.391 1502.41 505.133C1498.6 516.427 1468.58 607.337 1468.58 607.337H1503.3C1501.41 591.514 1500.74 575.568 1501.31 559.643H1552.64ZM1504.23 528.029C1505.87 517.153 1507.54 505.521 1511.55 495.192C1512.76 492.067 1515.97 482.952 1521.43 482.952C1525.59 482.952 1528.56 491.231 1529.81 495.192C1530.81 498.227 1544.27 535.93 1544.27 535.93C1545.83 540.318 1548.25 547.274 1551.08 555.165H1501.52C1501.98 546.116 1502.88 537.071 1504.23 528.029V528.029Z" fill="white"/>
<path d="M1217.23 607.337L1217.02 574.151C1194.66 597.287 1169.07 603.536 1144.38 602.103V541.642C1159.31 540.647 1174.86 544.329 1188.4 558.339L1188.51 541.493V538.507L1188.4 521.641C1174.86 535.652 1159.34 539.313 1144.38 538.338V477.788C1168.99 476.295 1191.66 480.624 1214.04 503.759L1214.25 472.604L1142.53 472.653H1121.47V607.307H1144.35V607.247L1217.23 607.337Z" fill="white"/>
<path d="M1717.44 472.604H1684.19C1707.72 509.83 1713.95 549.633 1712.23 590.729C1707.38 587.744 1695.55 581.644 1670.94 539.921C1660.17 521.681 1656.65 515.531 1645.49 497.53C1638.84 486.794 1630.39 470.166 1615.56 470.166C1608.91 470.166 1605.61 472.634 1605.61 472.634V607.367H1638.85C1615.31 570.141 1609.09 530.338 1610.82 489.242C1617.69 489.242 1638.69 529.045 1644.72 539.99C1651.38 552.001 1684.92 609.855 1707.48 609.855C1707.66 609.855 1707.31 609.855 1707.48 609.855C1714.13 609.855 1717.44 607.387 1717.44 607.387V472.604Z" fill="white"/>
<path d="M1775.37 472.604H1739.85V607.337H1775.39C1834.1 607.337 1854.48 577.116 1854.48 539.93C1854.48 502.744 1834.07 472.604 1775.37 472.604ZM1776.03 602.799C1771.52 602.799 1767.05 602.145 1762.73 600.859V600.859V479.121C1767.04 477.818 1771.52 477.148 1776.03 477.131C1817.52 477.131 1829.76 505.252 1829.76 539.95C1829.76 574.649 1817.52 602.799 1776.03 602.799V602.799Z" fill="white"/>
<path d="M283.922 479.576C284.801 477.737 284.614 475.493 283.699 473.67C282.243 470.781 279.282 469.086 276.397 467.892C270.428 465.425 263.945 464.514 257.502 464.338C245.057 463.943 232.657 466.025 221.023 470.463C208.547 475.29 197.906 482.314 187.639 490.627C182.948 494.415 174.989 499.214 169.286 494.753C163.456 490.201 167.408 482.871 170.906 477.92C175.017 472.11 180.97 467.534 187.082 463.992C196.08 458.771 206.247 455.886 216.315 453.53C226.889 451.043 237.784 450.347 248.549 449.045C257.928 447.915 267.781 447.804 275.856 442.177C287.885 433.784 281.996 421.201 271.009 415.749C257.877 409.235 243.336 407.21 228.827 408.614C223.685 409.116 218.572 409.872 213.498 410.831C207.298 412.001 189.414 414.237 193.151 402.319C194.022 399.533 196.203 397.353 198.575 395.665C211.162 386.708 226.674 384.391 241.827 384.185C254.881 383.999 267.876 385.981 280.281 390.05C290.719 393.488 300.09 398.996 308.487 406.075C315.439 411.949 320.907 419.419 328.384 424.675C332.173 427.342 338.186 427.859 341.672 424.353C345.758 420.262 344.246 413.752 341.297 409.534C337.362 403.899 331.13 399.927 325.404 396.322C306.995 384.726 285.366 378.625 263.881 376.158C253.124 374.897 242.271 374.665 231.469 375.466C216.423 376.616 201.448 379.445 187.194 384.451C177.185 387.961 167.153 392.326 158.387 398.379C151.809 402.904 144.411 409.549 142.751 417.731C140.762 427.485 147.761 436.037 157.388 437.29C163.142 438.042 168.968 436.582 174.412 434.564C186.27 430.187 197.835 424.958 209.956 421.293C216.323 419.371 222.905 417.433 229.611 417.564C234.227 417.656 241.899 418.662 244.438 423.215C251.37 435.655 220.076 441.274 213.685 443.319C203.649 446.534 193.545 449.686 184.114 454.461C164.642 464.311 147.288 479.011 139.146 499.712C135.919 507.905 136.261 518.097 141.171 525.578C146.496 533.688 157.487 536.84 166.345 532.793C172.426 530.007 174.567 525.984 175.574 524.209C180.385 515.761 185.2 502.843 202.041 491.001C211.465 484.367 222.332 480.071 233.745 478.468C245.157 476.866 256.787 478.002 267.674 481.784C271.709 483.181 276.341 484.602 280.488 482.775C281.954 482.164 283.163 481.065 283.91 479.663L283.922 479.576Z" fill="white"/>
<path d="M162.628 550.792C160.595 550.947 158.744 552.232 157.626 553.939C155.847 556.645 155.863 560.056 156.269 563.152C157.112 569.543 159.572 575.623 162.636 581.294C168.517 592.269 176.519 601.966 186.178 609.823C196.604 618.211 208.017 623.914 220.354 628.653C225.977 630.81 234.111 635.299 233.088 642.482C232.061 649.804 223.736 650.043 217.699 649.494C210.612 648.841 203.676 645.972 197.552 642.45C188.518 637.257 180.957 629.899 173.874 622.362C166.432 614.451 160.38 605.366 153.877 596.698C148.21 589.138 143.188 580.665 134.278 576.491C120.995 570.267 113.04 581.664 113.812 593.897C114.735 608.525 120.255 622.151 128.723 633.99C131.724 638.188 134.939 642.239 138.306 646.155C142.416 650.93 153.296 665.308 141.091 668.042C138.246 668.679 135.265 667.883 132.615 666.673C118.564 660.25 108.806 647.97 101.046 634.957C94.359 623.744 89.5797 611.498 86.9033 598.72C84.6588 587.976 84.7424 577.092 86.6724 566.28C88.2881 557.322 92.0208 548.854 92.8366 539.757C93.2345 535.141 90.6837 529.685 85.9163 528.411C80.3451 526.915 75.4504 531.479 73.2697 536.143C70.3567 542.367 70.0344 549.753 69.7717 556.514C68.9361 578.254 74.4635 600.033 83.071 619.879C87.3592 629.825 92.5867 639.339 98.6824 648.292C107.198 660.748 117.139 672.296 128.6 682.141C136.646 689.053 145.441 695.56 155.051 700.136C162.258 703.57 171.713 706.654 179.628 703.996C189.059 700.813 192.971 690.51 189.246 681.544C187.022 676.184 182.844 671.87 178.379 668.165C168.641 660.091 158.346 652.681 149.11 644.018C144.271 639.477 139.293 634.73 136.053 628.86C133.821 624.817 130.86 617.666 133.534 613.193C140.841 600.972 161.351 625.263 166.321 629.776C174.121 636.859 181.912 644.026 190.759 649.808C209.028 661.746 230.438 669.427 252.44 666.124C261.151 664.822 269.806 659.43 273.829 651.44C278.187 642.776 275.421 631.674 267.486 626.031C262.038 622.155 257.482 622.318 255.44 622.33C245.719 622.386 232.125 624.678 213.445 616.015C202.993 611.168 193.843 603.904 186.752 594.823C179.661 585.742 174.832 575.104 172.664 563.789C171.868 559.59 170.77 554.871 167.117 552.192C165.853 551.229 164.296 550.731 162.708 550.784L162.628 550.792Z" fill="white"/>
<path d="M284.949 620.237C286.099 621.916 288.133 622.879 290.178 622.995C293.409 623.178 296.358 621.463 298.833 619.564C303.943 615.637 307.986 610.467 311.357 604.976C317.921 594.394 322.319 582.614 324.294 570.319C326.347 557.103 325.587 544.373 323.522 531.32C322.583 525.351 322.4 516.083 329.125 513.361C335.981 510.576 340.355 517.675 342.89 523.182C345.87 529.649 346.869 537.091 346.869 544.154C346.869 554.564 344.295 564.795 341.298 574.7C338.166 585.103 333.339 594.888 329.069 604.852C325.364 613.536 320.529 622.127 321.369 631.913C322.618 646.529 336.459 647.723 346.674 640.934C358.879 632.82 367.908 621.24 373.941 607.976C376.078 603.277 377.976 598.469 379.684 593.595C381.773 587.625 388.777 571.035 397.233 580.232C399.223 582.377 400.019 585.357 400.281 588.254C401.742 603.635 395.995 618.223 388.598 631.451C382.231 642.849 374.017 653.113 364.291 661.822C356.094 669.144 346.638 674.505 336.312 678.237C327.748 681.317 318.544 682.32 310.254 686.16C306.052 688.11 302.614 693.065 303.887 697.828C305.388 703.399 311.779 705.361 316.912 704.915C323.757 704.323 330.311 700.912 336.296 697.752C355.544 687.609 371.641 671.93 384.523 654.556C390.992 645.868 396.619 636.585 401.328 626.831C407.854 613.225 412.868 598.84 415.682 583.996C417.648 573.57 418.865 562.702 418.041 552.089C417.409 544.13 415.351 534.4 409.096 528.877C401.638 522.287 390.743 524.062 384.841 531.77C381.311 536.378 379.668 542.152 378.689 547.875C376.564 560.342 375.294 572.945 372.409 585.282C370.897 591.74 369.277 598.414 365.811 604.164C363.424 608.12 358.716 614.256 353.503 614.18C339.264 613.961 350.049 584.052 351.469 577.494C353.702 567.199 356.018 556.864 356.599 546.311C357.793 524.524 353.75 502.139 339.885 484.729C334.406 477.837 325.408 473.038 316.474 473.551C306.792 474.108 298.567 482.055 297.644 491.745C297.011 498.402 299.43 502.267 300.461 504.029C305.372 512.422 314.15 523.047 315.981 543.557C317.025 555.037 315.322 566.6 311.011 577.291C306.699 587.981 299.905 597.492 291.189 605.036C287.958 607.821 284.424 611.136 283.922 615.641C283.718 617.216 284.066 618.814 284.909 620.161C284.921 620.187 284.934 620.213 284.949 620.237V620.237Z" fill="white"/>
</svg>
