<?xml version="1.0" encoding="UTF-8"?>
<svg width="598px" height="610px" viewBox="0 0 598 610" version="1.1" xmlns="http://www.w3.org/2000/svg" xmlns:xlink="http://www.w3.org/1999/xlink">
    <title>identifier-positive-alt</title>
    <g id="Page-1" stroke="none" stroke-width="1" fill="none" fill-rule="evenodd">
        <g id="identifier-positive-alt" transform="translate(0.057000, 0.432709)" fill="#0E152C" fill-rule="nonzero">
            <path d="M128.286,394.020291 C128.286,394.020291 114.688,433.217291 110.459,445.305291 C110.459,445.305291 100.9,472.392291 100.217,474.572291 C99.321,477.432291 97.228,483.365291 94.267,483.365291 C90.411,483.365291 88.134,476.817291 87.275,474.572291 C84.455,467.166291 83.257,458.809291 82.093,450.981291 C80.772,442.043291 80.044,433.025291 79.915,423.987291 C79.871,420.746291 80.391,417.523291 81.452,414.465291 L88.501,394.005291 L71.407,394.005291 C71.407,394.005291 57.802,433.202291 53.573,445.291291 C53.573,445.291291 44.015,472.377291 43.331,474.558291 C42.443,477.417291 40.342,483.351291 37.388,483.351291 C33.526,483.351291 31.249,476.803291 30.396,474.558291 C27.576,467.152291 26.371,458.795291 25.208,450.967291 C22.493,432.088291 22.286,412.925291 24.594,393.991291 L0,393.991291 C0,393.991291 18.476,453.605291 23.967,467.416291 C26.681,474.272291 33.54,492.551291 43.704,492.551291 C53.869,492.551291 57.344,483.766291 60.622,474.544291 C62.293,469.875291 67.093,456.035291 72.26,441.116291 C76.32,453.576291 79.859,464.414291 80.86,467.416291 C83.193,474.415291 90.44,492.551291 100.597,492.551291 C110.755,492.551291 114.244,483.766291 117.515,474.544291 C121.674,462.891291 145.429,393.991291 145.429,393.991291 L128.286,394.020291 Z" id="Path"></path>
            <path d="M535.653,397.565291 L535.653,490.714291 L519.983,490.714291 L519.983,394.019291 C528.153,394.019291 562.563,393.841291 569.323,394.391291 C577.073,395.020291 584.833,396.350291 590.643,402.090291 C593.693,405.107291 595.683,409.153291 595.493,413.528291 C594.833,429.720291 575.303,433.981291 563.393,438.606291 C561.473,439.357291 559.313,440.358291 558.703,442.359291 C558.103,444.361291 559.253,446.320291 560.353,448.021291 C570.773,463.992291 582.813,479.083291 597.713,490.842291 L575.333,490.842291 C575.333,490.842291 569.883,485.667291 567.573,483.029291 C559.763,474.283291 552.873,464.743291 546.993,454.562291 C545.693,452.275291 544.413,449.658291 545.073,447.106291 C545.623,444.962291 547.403,443.439291 549.183,442.195291 C558.023,436.061291 571.283,434.124291 576.943,423.944291 C580.613,417.332291 579.823,408.310291 574.393,402.912291 C569.923,398.473291 563.053,397.608291 557.083,397.501291 C550.173,397.372291 543.223,397.594291 536.353,397.594291 L535.653,397.565291 Z" id="Path"></path>
            <path d="M330.974,394.020291 L307.416,394.020291 C324.094,420.763291 328.507,449.358291 327.287,478.883291 C323.847,476.738291 315.473,472.356291 298.027,442.381291 C290.407,429.277291 287.904,424.859291 280.009,411.927291 C275.294,404.214291 269.288,392.268291 258.806,392.268291 C254.097,392.268291 251.757,394.041291 251.757,394.041291 L251.757,490.835291 L275.308,490.835291 C258.63,464.092291 254.224,435.497291 255.444,405.972291 C260.314,405.972291 275.181,434.567291 279.453,442.431291 C284.182,451.060291 307.938,492.623291 323.925,492.623291 C324.052,492.623291 323.791,492.623291 323.925,492.623291 C328.634,492.623291 330.974,490.850291 330.974,490.850291 L330.974,394.020291 Z" id="Path"></path>
            <path d="M192.559,392.404291 C164.863,392.404291 142.405,414.780291 142.405,442.381291 C142.405,469.983291 164.863,492.351291 192.559,492.351291 C220.254,492.351291 242.713,469.975291 242.713,442.381291 C242.713,414.787291 220.269,392.404291 192.559,392.404291 Z M192.982,489.041291 C176.261,489.041291 162.706,468.167291 162.706,442.417291 C162.706,416.667291 176.261,395.793291 192.982,395.793291 C209.702,395.793291 223.293,416.667291 223.293,442.417291 C223.293,468.167291 209.695,489.041291 192.982,489.041291 L192.982,489.041291 Z" id="Shape"></path>
            <path d="M369.833,394.020291 L344.653,394.020291 L344.653,490.814291 L369.843,490.814291 C411.433,490.814291 425.873,469.103291 425.873,442.388291 C425.873,415.673291 411.413,394.020291 369.833,394.020291 Z M370.293,487.554291 C367.103,487.554291 363.933,487.084291 360.873,486.160291 L360.873,486.160291 L360.873,398.702291 C363.933,397.766291 367.103,397.284291 370.293,397.272291 C399.683,397.272291 408.363,417.475291 408.363,442.402291 C408.363,467.330291 399.683,487.554291 370.293,487.554291 L370.293,487.554291 Z" id="Shape"></path>
            <path d="M504.913,490.814291 L504.763,466.973291 C488.923,483.594291 470.793,488.083291 453.303,487.054291 L453.303,443.618291 C463.873,442.903291 474.893,445.548291 484.483,455.613291 L484.563,443.510291 L484.563,441.366291 L484.483,429.249291 C474.893,439.314291 463.893,441.945291 453.303,441.244291 L453.303,397.744291 C470.733,396.672291 486.793,399.781291 502.643,416.402291 L502.793,394.020291 L451.993,394.055291 L437.073,394.055291 L437.073,490.792291 L453.283,490.792291 L453.283,490.750291 L504.913,490.814291 Z" id="Path"></path>
            <path d="M192.659,607.325291 L192.659,583.484291 C176.826,600.105291 158.548,604.594291 141.038,603.565291 L141.038,510.567291 L124.826,510.567291 L124.826,607.304291 L192.659,607.325291 Z" id="Path"></path>
            <path d="M259.075,573.061291 C264.488,588.617291 270.973,607.325291 270.973,607.325291 L288.772,607.325291 L260.146,526.773291 C256.854,517.551291 253.344,508.765291 243.228,508.765291 C233.113,508.765291 225.845,526.902291 223.491,533.900291 C220.791,542.014291 199.524,607.325291 199.524,607.325291 L224.118,607.325291 C222.781,595.958291 222.309,584.502291 222.709,573.061291 L259.075,573.061291 Z M224.781,550.350291 C225.944,542.536291 227.128,534.179291 229.969,526.759291 C230.822,524.514291 233.099,517.966291 236.962,517.966291 C239.915,517.966291 242.016,523.913291 242.904,526.759291 C243.609,528.939291 253.146,556.026291 253.146,556.026291 C254.253,559.178291 255.966,564.175291 257.968,569.844291 L222.864,569.844291 C223.188,563.344291 223.827,556.845291 224.781,550.350291 L224.781,550.350291 Z" id="Shape"></path>
            <path d="M375.813,510.531291 L352.263,510.531291 C368.933,537.275291 373.343,565.870291 372.123,595.394291 C368.683,593.250291 360.313,588.867291 342.873,558.893291 C335.246,545.789291 332.751,541.371291 324.849,528.439291 C320.14,520.725291 314.148,508.780291 303.645,508.780291 C298.937,508.780291 296.596,510.553291 296.596,510.553291 L296.596,607.347291 L320.147,607.347291 C303.469,580.603291 299.063,552.008291 300.29,522.484291 C305.154,522.484291 320.027,551.079291 324.299,558.943291 C329.022,567.571291 352.773,609.134291 368.763,609.134291 C368.893,609.134291 368.633,609.134291 368.763,609.134291 C373.473,609.134291 375.813,607.361291 375.813,607.361291 L375.813,510.531291 Z" id="Path"></path>
            <path d="M416.853,510.531291 L391.683,510.531291 L391.683,607.325291 L416.863,607.325291 C458.453,607.325291 472.893,585.614291 472.893,558.899291 C472.893,532.184291 458.433,510.531291 416.853,510.531291 Z M417.313,604.065291 C414.133,604.065291 410.953,603.595291 407.903,602.671291 L407.903,602.671291 L407.903,515.213291 C410.953,514.277291 414.123,513.796291 417.313,513.784291 C446.713,513.784291 455.383,533.986291 455.383,558.914291 C455.383,583.842291 446.713,604.065291 417.313,604.065291 L417.313,604.065291 Z" id="Shape"></path>
            <path d="M338.203,104.576291 C339.083,102.737291 338.893,100.493291 337.973,98.6702911 C336.52,95.7812911 333.559,94.0862911 330.674,92.8922911 C324.705,90.4252911 318.222,89.5132911 311.78,89.3382911 C299.334,88.9432911 286.934,91.0252911 275.3,95.4632911 C262.824,100.290291 252.183,107.313291 241.916,115.626291 C237.225,119.415291 229.266,124.214291 223.563,119.753291 C217.733,115.201291 221.685,107.871291 225.183,102.920291 C229.294,97.1102911 235.247,92.5342911 241.359,88.9922911 C250.357,83.7712911 260.524,80.8862911 270.592,78.5302911 C281.166,76.0432911 292.061,75.3472911 302.826,74.0452911 C312.205,72.9152911 322.058,72.8042911 330.133,67.1772911 C342.163,58.7842911 336.273,46.2012911 325.286,40.7492911 C312.154,34.2352911 297.613,32.2092911 283.104,33.6142911 C277.962,34.1162911 272.849,34.8722911 267.775,35.8312911 C261.575,37.0012911 243.691,39.2372911 247.428,27.3192911 C248.3,24.5332911 250.48,22.3522911 252.852,20.6652911 C265.439,11.7072911 280.951,9.39129111 296.105,9.18429111 C309.159,8.99929111 322.153,10.9812911 334.558,15.0502911 C344.993,18.4882911 354.363,23.9962911 362.763,31.0752911 C369.713,36.9492911 375.183,44.4182911 382.663,49.6752911 C386.453,52.3412911 392.463,52.8592911 395.953,49.3532911 C400.033,45.2622911 398.523,38.7522911 395.573,34.5332911 C391.643,28.8992911 385.403,24.9272911 379.683,21.3222911 C361.273,9.72629111 339.643,3.62529111 318.159,1.15829111 C307.401,-0.102708886 296.548,-0.334708886 285.746,0.465291114 C270.7,1.61629111 255.725,4.44529111 241.471,9.45129111 C231.462,12.9612911 221.43,17.3262911 212.664,23.3792911 C206.086,27.9042911 198.688,34.5492911 197.028,42.7312911 C195.039,52.4852911 202.039,61.0372911 211.665,62.2902911 C217.419,63.0422911 223.245,61.5822911 228.689,59.5642911 C240.548,55.1872911 252.112,49.9582911 264.233,46.2932911 C270.6,44.3712911 277.182,42.4332911 283.888,42.5642911 C288.504,42.6552911 296.176,43.6622911 298.715,48.2152911 C305.647,60.6542911 274.353,66.2732911 267.962,68.3192911 C257.926,71.5342911 247.822,74.6862911 238.391,79.4612911 C218.919,89.3102911 201.565,104.010291 193.423,124.712291 C190.196,132.905291 190.538,143.097291 195.449,150.578291 C200.773,158.688291 211.764,161.840291 220.623,157.793291 C226.703,155.007291 228.844,150.984291 229.851,149.209291 C234.662,140.761291 239.477,127.843291 256.318,116.001291 C265.742,109.367291 276.609,105.071291 288.022,103.468291 C299.434,101.866291 311.065,103.002291 321.951,106.784291 C325.986,108.181291 330.618,109.602291 334.765,107.775291 C336.231,107.164291 337.44,106.065291 338.183,104.663291 L338.203,104.576291 Z" id="Path"></path>
            <path d="M216.905,175.791291 C214.872,175.947291 213.022,177.232291 211.903,178.939291 C210.124,181.645291 210.14,185.056291 210.546,188.152291 C211.39,194.543291 213.849,200.623291 216.913,206.294291 C222.795,217.268291 230.797,226.966291 240.456,234.822291 C250.882,243.211291 262.295,248.914291 274.631,253.653291 C280.254,255.810291 288.388,260.299291 287.365,267.482291 C286.339,274.804291 278.014,275.043291 271.977,274.494291 C264.89,273.841291 257.953,270.972291 251.829,267.450291 C242.796,262.257291 235.235,254.899291 228.151,247.362291 C220.71,239.451291 214.657,230.366291 208.155,221.698291 C202.488,214.137291 197.466,205.665291 188.556,201.491291 C175.273,195.267291 167.318,206.664291 168.09,218.897291 C169.013,233.525291 174.532,247.151291 183.001,258.990291 C186.001,263.188291 189.217,267.239291 192.583,271.155291 C196.694,275.930291 207.574,290.308291 195.369,293.042291 C192.523,293.678291 189.543,292.883291 186.893,291.673291 C172.841,285.250291 163.084,272.969291 155.324,259.957291 C148.636,248.744291 143.857,236.498291 141.181,223.720291 C138.936,212.975291 139.02,202.092291 140.95,191.279291 C142.566,182.322291 146.298,173.854291 147.114,164.757291 C147.512,160.140291 144.961,154.685291 140.194,153.411291 C134.623,151.915291 129.728,156.479291 127.547,161.143291 C124.634,167.367291 124.312,174.753291 124.049,181.514291 C123.214,203.254291 128.741,225.033291 137.349,244.879291 C141.637,254.825291 146.864,264.339291 152.96,273.292291 C161.476,285.747291 171.416,297.296291 182.877,307.141291 C190.924,314.053291 199.718,320.560291 209.329,325.136291 C216.535,328.570291 225.991,331.654291 233.906,328.996291 C243.337,325.812291 247.249,315.510291 243.524,306.544291 C241.299,301.184291 237.121,296.870291 232.656,293.165291 C222.918,285.091291 212.624,277.681291 203.387,269.018291 C198.548,264.477291 193.57,259.730291 190.331,253.860291 C188.098,249.817291 185.138,242.666291 187.812,238.193291 C195.118,225.972291 215.628,250.263291 220.598,254.775291 C228.398,261.859291 236.19,269.026291 245.036,274.808291 C263.306,286.746291 284.715,294.427291 306.717,291.124291 C315.428,289.822291 324.084,284.430291 328.107,276.439291 C332.464,267.776291 329.699,256.674291 321.764,251.031291 C316.316,247.155291 311.759,247.318291 309.718,247.330291 C299.996,247.386291 286.402,249.678291 267.723,241.015291 C257.27,236.168291 248.12,228.904291 241.029,219.823291 C233.938,210.742291 229.109,200.104291 226.942,188.788291 C226.146,184.590291 225.047,179.870291 221.394,177.192291 C220.131,176.229291 218.573,175.731291 216.985,175.784291 L216.905,175.791291 Z" id="Path"></path>
            <path d="M339.223,245.237291 C340.373,246.916291 342.413,247.879291 344.453,247.995291 C347.683,248.178291 350.633,246.463291 353.113,244.564291 C358.223,240.637291 362.263,235.467291 365.633,229.976291 C372.203,219.394291 376.593,207.614291 378.573,195.319291 C380.623,182.103291 379.863,169.373291 377.803,156.320291 C376.863,150.351291 376.673,141.083291 383.403,138.361291 C390.263,135.575291 394.633,142.675291 397.163,148.182291 C400.143,154.649291 401.143,162.090291 401.143,169.154291 C401.143,179.564291 398.573,189.795291 395.573,199.700291 C392.443,210.102291 387.613,219.888291 383.343,229.852291 C379.643,238.535291 374.803,247.127291 375.643,256.913291 C376.893,271.529291 390.733,272.723291 400.953,265.934291 C413.153,257.820291 422.183,246.240291 428.223,232.976291 C430.353,228.276291 432.253,223.469291 433.963,218.594291 C436.053,212.625291 443.053,196.035291 451.513,205.232291 C453.503,207.376291 454.293,210.357291 454.563,213.254291 C456.023,228.635291 450.273,243.223291 442.873,256.451291 C436.513,267.849291 428.293,278.112291 418.573,286.822291 C410.373,294.144291 400.913,299.504291 390.593,303.237291 C382.023,306.317291 372.823,307.320291 364.533,311.160291 C360.333,313.110291 356.893,318.065291 358.163,322.828291 C359.663,328.399291 366.053,330.361291 371.193,329.915291 C378.033,329.322291 384.593,325.912291 390.573,322.752291 C409.823,312.609291 425.923,296.930291 438.803,279.556291 C445.273,270.868291 450.893,261.585291 455.603,251.831291 C462.133,238.225291 467.143,223.839291 469.963,208.996291 C471.923,198.570291 473.143,187.702291 472.323,177.089291 C471.683,169.130291 469.633,159.400291 463.373,153.877291 C455.913,147.287291 445.023,149.062291 439.123,156.770291 C435.593,161.378291 433.943,167.152291 432.963,172.875291 C430.843,185.342291 429.573,197.945291 426.683,210.281291 C425.173,216.740291 423.553,223.414291 420.093,229.164291 C417.703,233.119291 412.993,239.256291 407.783,239.180291 C393.543,238.961291 404.323,209.052291 405.743,202.494291 C407.983,192.199291 410.293,181.864291 410.873,171.311291 C412.073,149.523291 408.023,127.139291 394.163,109.729291 C388.683,102.837291 379.683,98.0372911 370.753,98.5512911 C361.073,99.1082911 352.843,107.055291 351.923,116.745291 C351.293,123.402291 353.703,127.266291 354.743,129.029291 C359.653,137.422291 368.423,148.047291 370.263,168.557291 C371.303,180.037291 369.603,191.600291 365.283,202.291291 C360.973,212.981291 354.183,222.492291 345.463,230.035291 C342.233,232.821291 338.703,236.136291 338.203,240.641291 C337.993,242.216291 338.343,243.814291 339.183,245.161291 C339.203,245.187291 339.213,245.213291 339.223,245.237291 L339.223,245.237291 Z" id="Path"></path>
        </g>
    </g>
</svg>