<svg width="1921" height="1080" viewBox="0 0 1921 1080" fill="none" xmlns="http://www.w3.org/2000/svg">
<rect width="1920" height="1080" transform="translate(0.915527)" fill="white"/>
<path d="M790.343 629.453C790.343 629.453 776.745 668.65 772.516 680.738C772.516 680.738 762.957 707.825 762.274 710.005C761.378 712.865 759.285 718.798 756.324 718.798C752.468 718.798 750.191 712.25 749.332 710.005C746.512 702.599 745.314 694.242 744.15 686.414C742.829 677.476 742.101 668.458 741.972 659.42C741.928 656.179 742.448 652.956 743.509 649.898L750.558 629.438H733.464C733.464 629.438 719.859 668.635 715.63 680.724C715.63 680.724 706.072 707.81 705.388 709.991C704.5 712.85 702.399 718.784 699.445 718.784C695.583 718.784 693.306 712.236 692.453 709.991C689.633 702.585 688.428 694.228 687.265 686.4C684.55 667.521 684.343 648.358 686.651 629.424H662.057C662.057 629.424 680.533 689.038 686.024 702.849C688.738 709.705 695.597 727.984 705.761 727.984C715.926 727.984 719.401 719.199 722.679 709.977C724.35 705.308 729.15 691.468 734.317 676.549C738.377 689.009 741.916 699.847 742.917 702.849C745.25 709.848 752.497 727.984 762.654 727.984C772.812 727.984 776.301 719.199 779.572 709.977C783.731 698.324 807.486 629.424 807.486 629.424L790.343 629.453Z" fill="#0E152C"/>
<path d="M1197.71 632.998V726.147H1182.04V629.452C1190.21 629.452 1224.62 629.274 1231.38 629.824C1239.13 630.453 1246.89 631.783 1252.7 637.523C1255.75 640.54 1257.74 644.586 1257.55 648.961C1256.89 665.153 1237.36 669.414 1225.45 674.039C1223.53 674.79 1221.37 675.791 1220.76 677.792C1220.16 679.794 1221.31 681.753 1222.41 683.454C1232.83 699.425 1244.87 714.516 1259.77 726.275H1237.39C1237.39 726.275 1231.94 721.1 1229.63 718.462C1221.82 709.716 1214.93 700.176 1209.05 689.995C1207.75 687.708 1206.47 685.091 1207.13 682.539C1207.68 680.395 1209.46 678.872 1211.24 677.628C1220.08 671.494 1233.34 669.557 1239 659.377C1242.67 652.765 1241.88 643.743 1236.45 638.345C1231.98 633.906 1225.11 633.041 1219.14 632.934C1212.23 632.805 1205.28 633.027 1198.41 633.027L1197.71 632.998Z" fill="#0E152C"/>
<path d="M993.031 629.453H969.473C986.151 656.196 990.564 684.791 989.344 714.316C985.904 712.171 977.53 707.789 960.084 677.814C952.464 664.71 949.961 660.292 942.066 647.36C937.351 639.647 931.345 627.701 920.863 627.701C916.154 627.701 913.814 629.474 913.814 629.474V726.268H937.365C920.687 699.525 916.281 670.93 917.501 641.405C922.371 641.405 937.238 670 941.51 677.864C946.239 686.493 969.995 728.056 985.982 728.056C986.109 728.056 985.848 728.056 985.982 728.056C990.691 728.056 993.031 726.283 993.031 726.283V629.453Z" fill="#0E152C"/>
<path d="M854.616 627.837C826.92 627.837 804.462 650.213 804.462 677.814C804.462 705.416 826.92 727.784 854.616 727.784C882.311 727.784 904.77 705.408 904.77 677.814C904.77 650.22 882.326 627.837 854.616 627.837ZM855.039 724.474C838.318 724.474 824.763 703.6 824.763 677.85C824.763 652.1 838.318 631.226 855.039 631.226C871.759 631.226 885.35 652.1 885.35 677.85C885.35 703.6 871.752 724.474 855.039 724.474V724.474Z" fill="#0E152C"/>
<path d="M1031.89 629.453H1006.71V726.247H1031.9C1073.49 726.247 1087.93 704.536 1087.93 677.821C1087.93 651.106 1073.47 629.453 1031.89 629.453ZM1032.35 722.987C1029.16 722.987 1025.99 722.517 1022.93 721.593V721.593V634.135C1025.99 633.199 1029.16 632.717 1032.35 632.705C1061.74 632.705 1070.42 652.908 1070.42 677.835C1070.42 702.763 1061.74 722.987 1032.35 722.987V722.987Z" fill="#0E152C"/>
<path d="M1166.97 726.247L1166.82 702.406C1150.98 719.027 1132.85 723.516 1115.36 722.487V679.051C1125.93 678.336 1136.95 680.981 1146.54 691.046L1146.62 678.943V676.799L1146.54 664.682C1136.95 674.747 1125.95 677.378 1115.36 676.677V633.177C1132.79 632.105 1148.85 635.214 1164.7 651.835L1164.85 629.453L1114.05 629.488H1099.13V726.225H1115.34V726.183L1166.97 726.247Z" fill="#0E152C"/>
<path d="M854.716 842.758V818.917C838.883 835.538 820.605 840.027 803.095 838.998V746H786.883V842.737L854.716 842.758Z" fill="#0E152C"/>
<path d="M921.132 808.494C926.545 824.05 933.03 842.758 933.03 842.758H950.829L922.203 762.206C918.911 752.984 915.401 744.198 905.285 744.198C895.17 744.198 887.902 762.335 885.548 769.333C882.848 777.447 861.581 842.758 861.581 842.758H886.175C884.838 831.391 884.366 819.935 884.766 808.494H921.132ZM886.838 785.783C888.001 777.969 889.185 769.612 892.026 762.192C892.879 759.947 895.156 753.399 899.019 753.399C901.972 753.399 904.073 759.346 904.961 762.192C905.666 764.372 915.203 791.459 915.203 791.459C916.31 794.611 918.023 799.608 920.025 805.277H884.921C885.245 798.777 885.884 792.278 886.838 785.783V785.783Z" fill="#0E152C"/>
<path d="M1037.87 745.964H1014.32C1030.99 772.708 1035.4 801.303 1034.18 830.827C1030.74 828.683 1022.37 824.3 1004.93 794.326C997.303 781.222 994.808 776.804 986.906 763.872C982.197 756.158 976.205 744.213 965.702 744.213C960.994 744.213 958.653 745.986 958.653 745.986V842.78H982.204C965.526 816.036 961.12 787.441 962.347 757.917C967.211 757.917 982.084 786.512 986.356 794.376C991.079 803.004 1014.83 844.567 1030.82 844.567C1030.95 844.567 1030.69 844.567 1030.82 844.567C1035.53 844.567 1037.87 842.794 1037.87 842.794V745.964Z" fill="#0E152C"/>
<path d="M1078.91 745.964H1053.74V842.758H1078.92C1120.51 842.758 1134.95 821.047 1134.95 794.332C1134.95 767.617 1120.49 745.964 1078.91 745.964ZM1079.37 839.498C1076.19 839.498 1073.01 839.028 1069.96 838.104V838.104V750.646C1073.01 749.71 1076.18 749.229 1079.37 749.217C1108.77 749.217 1117.44 769.419 1117.44 794.347C1117.44 819.275 1108.77 839.498 1079.37 839.498V839.498Z" fill="#0E152C"/>
<path d="M1000.26 340.009C1001.14 338.17 1000.95 335.926 1000.03 334.103C998.577 331.214 995.616 329.519 992.731 328.325C986.762 325.858 980.279 324.946 973.837 324.771C961.391 324.376 948.991 326.458 937.357 330.896C924.881 335.723 914.24 342.746 903.973 351.059C899.282 354.848 891.323 359.647 885.62 355.186C879.79 350.634 883.742 343.304 887.24 338.353C891.351 332.543 897.304 327.967 903.416 324.425C912.414 319.204 922.581 316.319 932.649 313.963C943.223 311.476 954.118 310.78 964.883 309.478C974.262 308.348 984.115 308.237 992.19 302.61C1004.22 294.217 998.33 281.634 987.343 276.182C974.211 269.668 959.67 267.642 945.161 269.047C940.019 269.549 934.906 270.305 929.832 271.264C923.632 272.434 905.748 274.67 909.485 262.752C910.357 259.966 912.537 257.785 914.909 256.098C927.496 247.14 943.008 244.824 958.162 244.617C971.216 244.432 984.21 246.414 996.615 250.483C1007.05 253.921 1016.42 259.429 1024.82 266.508C1031.77 272.382 1037.24 279.851 1044.72 285.108C1048.51 287.774 1054.52 288.292 1058.01 284.786C1062.09 280.695 1060.58 274.185 1057.63 269.966C1053.7 264.332 1047.46 260.36 1041.74 256.755C1023.33 245.159 1001.7 239.058 980.216 236.591C969.458 235.33 958.605 235.098 947.803 235.898C932.757 237.049 917.782 239.878 903.528 244.884C893.519 248.394 883.487 252.759 874.721 258.812C868.143 263.337 860.745 269.982 859.085 278.164C857.096 287.918 864.096 296.47 873.722 297.723C879.476 298.475 885.302 297.015 890.746 294.997C902.605 290.62 914.169 285.391 926.29 281.726C932.657 279.804 939.239 277.866 945.945 277.997C950.561 278.088 958.233 279.095 960.772 283.648C967.704 296.087 936.41 301.706 930.019 303.752C919.983 306.967 909.879 310.119 900.448 314.894C880.976 324.743 863.622 339.443 855.48 360.145C852.253 368.338 852.595 378.53 857.506 386.011C862.83 394.121 873.821 397.273 882.68 393.226C888.76 390.44 890.901 386.417 891.908 384.642C896.719 376.194 901.534 363.276 918.375 351.434C927.799 344.8 938.666 340.504 950.079 338.901C961.491 337.299 973.122 338.435 984.008 342.217C988.043 343.614 992.675 345.035 996.822 343.208C998.288 342.597 999.497 341.498 1000.24 340.096L1000.26 340.009Z" fill="#0E152C"/>
<path d="M878.962 411.224C876.929 411.38 875.079 412.665 873.96 414.372C872.181 417.078 872.197 420.489 872.603 423.585C873.447 429.976 875.906 436.056 878.97 441.727C884.852 452.701 892.854 462.399 902.513 470.255C912.939 478.644 924.352 484.347 936.688 489.086C942.311 491.243 950.445 495.732 949.422 502.915C948.396 510.237 940.071 510.476 934.034 509.927C926.947 509.274 920.01 506.405 913.886 502.883C904.853 497.69 897.292 490.332 890.208 482.795C882.767 474.884 876.714 465.799 870.212 457.131C864.545 449.57 859.523 441.098 850.613 436.924C837.33 430.7 829.375 442.097 830.147 454.33C831.07 468.958 836.589 482.584 845.058 494.423C848.058 498.621 851.274 502.672 854.64 506.588C858.751 511.363 869.631 525.741 857.426 528.475C854.58 529.111 851.6 528.316 848.95 527.106C834.898 520.683 825.141 508.402 817.381 495.39C810.693 484.177 805.914 471.931 803.238 459.153C800.993 448.408 801.077 437.525 803.007 426.712C804.623 417.755 808.355 409.287 809.171 400.19C809.569 395.573 807.018 390.118 802.251 388.844C796.68 387.348 791.785 391.912 789.604 396.576C786.691 402.8 786.369 410.186 786.106 416.947C785.271 438.687 790.798 460.466 799.406 480.312C803.694 490.258 808.921 499.772 815.017 508.725C823.533 521.18 833.473 532.729 844.934 542.574C852.981 549.486 861.775 555.993 871.386 560.569C878.592 564.003 888.048 567.087 895.963 564.429C905.394 561.245 909.306 550.943 905.581 541.977C903.356 536.617 899.178 532.303 894.713 528.598C884.975 520.524 874.681 513.114 865.444 504.451C860.605 499.91 855.627 495.163 852.388 489.293C850.155 485.25 847.195 478.099 849.869 473.626C857.175 461.405 877.685 485.696 882.655 490.208C890.455 497.292 898.247 504.459 907.093 510.241C925.363 522.179 946.772 529.86 968.774 526.557C977.485 525.255 986.141 519.863 990.164 511.872C994.521 503.209 991.756 492.107 983.821 486.464C978.373 482.588 973.816 482.751 971.775 482.763C962.053 482.819 948.459 485.111 929.78 476.448C919.327 471.601 910.177 464.337 903.086 455.256C895.995 446.175 891.166 435.537 888.999 424.221C888.203 420.023 887.104 415.303 883.451 412.625C882.188 411.662 880.63 411.164 879.042 411.217L878.962 411.224Z" fill="#0E152C"/>
<path d="M1001.28 480.67C1002.43 482.349 1004.47 483.312 1006.51 483.428C1009.74 483.611 1012.69 481.896 1015.17 479.997C1020.28 476.07 1024.32 470.9 1027.69 465.409C1034.26 454.827 1038.65 443.047 1040.63 430.752C1042.68 417.536 1041.92 404.806 1039.86 391.753C1038.92 385.784 1038.73 376.516 1045.46 373.794C1052.32 371.008 1056.69 378.108 1059.22 383.615C1062.2 390.082 1063.2 397.523 1063.2 404.587C1063.2 414.997 1060.63 425.228 1057.63 435.133C1054.5 445.535 1049.67 455.321 1045.4 465.285C1041.7 473.968 1036.86 482.56 1037.7 492.346C1038.95 506.962 1052.79 508.156 1063.01 501.367C1075.21 493.253 1084.24 481.673 1090.28 468.409C1092.41 463.709 1094.31 458.902 1096.02 454.027C1098.11 448.058 1105.11 431.468 1113.57 440.665C1115.56 442.809 1116.35 445.79 1116.62 448.687C1118.08 464.068 1112.33 478.656 1104.93 491.884C1098.57 503.282 1090.35 513.545 1080.63 522.255C1072.43 529.577 1062.97 534.937 1052.65 538.67C1044.08 541.75 1034.88 542.753 1026.59 546.593C1022.39 548.543 1018.95 553.498 1020.22 558.261C1021.72 563.832 1028.11 565.794 1033.25 565.348C1040.09 564.755 1046.65 561.345 1052.63 558.185C1071.88 548.042 1087.98 532.363 1100.86 514.989C1107.33 506.301 1112.95 497.018 1117.66 487.264C1124.19 473.658 1129.2 459.272 1132.02 444.429C1133.98 434.003 1135.2 423.135 1134.38 412.522C1133.74 404.563 1131.69 394.833 1125.43 389.31C1117.97 382.72 1107.08 384.495 1101.18 392.203C1097.65 396.811 1096 402.585 1095.02 408.308C1092.9 420.775 1091.63 433.378 1088.74 445.714C1087.23 452.173 1085.61 458.847 1082.15 464.597C1079.76 468.552 1075.05 474.689 1069.84 474.613C1055.6 474.394 1066.38 444.485 1067.8 437.927C1070.04 427.632 1072.35 417.297 1072.93 406.744C1074.13 384.956 1070.08 362.572 1056.22 345.162C1050.74 338.27 1041.74 333.47 1032.81 333.984C1023.13 334.541 1014.9 342.488 1013.98 352.178C1013.35 358.835 1015.76 362.699 1016.8 364.462C1021.71 372.855 1030.48 383.48 1032.32 403.99C1033.36 415.47 1031.66 427.033 1027.34 437.724C1023.03 448.414 1016.24 457.925 1007.52 465.468C1004.29 468.254 1000.76 471.569 1000.26 476.074C1000.05 477.649 1000.4 479.247 1001.24 480.594C1001.26 480.62 1001.27 480.646 1001.28 480.67V480.67Z" fill="#0E152C"/>
</svg>
