<svg width="1920" height="1080" viewBox="0 0 1920 1080" fill="none" xmlns="http://www.w3.org/2000/svg">
<rect width="1920" height="1080" fill="#0E152C"/>
<path d="M999.927 294.289C1000.81 292.451 1000.62 290.206 999.704 288.384C998.247 285.495 995.287 283.799 992.402 282.605C986.433 280.138 979.95 279.227 973.507 279.052C961.062 278.657 948.662 280.739 937.028 285.176C924.552 290.003 913.911 297.027 903.644 305.34C898.952 309.128 890.994 313.928 885.291 309.467C879.461 304.914 883.413 297.584 886.911 292.634C891.021 286.824 896.975 282.247 903.087 278.706C912.085 273.485 922.252 270.599 932.32 268.244C942.893 265.756 953.789 265.06 964.554 263.759C973.933 262.629 983.786 262.517 991.86 256.89C1003.89 248.498 998.001 235.915 987.014 230.463C973.881 223.948 959.34 221.923 944.831 223.328C939.69 223.829 934.576 224.585 929.503 225.544C923.303 226.714 905.419 228.951 909.156 217.032C910.027 214.247 912.208 212.066 914.58 210.379C927.167 201.421 942.679 199.105 957.832 198.898C970.886 198.713 983.881 200.695 996.286 204.764C1006.72 208.202 1016.1 213.709 1024.49 220.789C1031.44 226.662 1036.91 234.132 1044.39 239.389C1048.18 242.055 1054.19 242.572 1057.68 239.066C1061.76 234.976 1060.25 228.465 1057.3 224.247C1053.37 218.612 1047.13 214.641 1041.41 211.035C1023 199.439 1001.37 193.339 979.886 190.871C969.129 189.611 958.275 189.379 947.474 190.179C932.428 191.329 917.453 194.158 903.199 199.165C893.19 202.674 883.158 207.04 874.391 213.093C867.813 217.617 860.416 224.263 858.756 232.445C856.766 242.198 863.766 250.75 873.393 252.004C879.147 252.756 884.973 251.295 890.417 249.278C902.275 244.9 913.84 239.671 925.961 236.006C932.328 234.084 938.91 232.146 945.615 232.277C950.232 232.369 957.904 233.376 960.443 237.928C967.375 250.368 936.081 255.987 929.69 258.032C919.654 261.248 909.55 264.4 900.118 269.175C880.647 279.024 863.293 293.724 855.151 314.425C851.923 322.619 852.266 332.81 857.176 340.291C862.501 348.401 873.492 351.553 882.35 347.506C888.431 344.721 890.572 340.697 891.579 338.922C896.39 330.474 901.205 317.557 918.046 305.714C927.47 299.08 938.337 294.784 949.75 293.182C961.162 291.579 972.792 292.716 983.679 296.498C987.714 297.894 992.346 299.315 996.493 297.489C997.959 296.878 999.168 295.778 999.915 294.377L999.927 294.289Z" fill="white"/>
<path d="M878.633 365.505C876.599 365.66 874.749 366.946 873.631 368.653C871.852 371.359 871.868 374.769 872.274 377.865C873.117 384.256 875.577 390.337 878.641 396.007C884.522 406.982 892.524 416.679 902.183 424.536C912.609 432.925 924.022 438.627 936.359 443.367C941.982 445.524 950.116 450.012 949.093 457.195C948.066 464.517 939.741 464.756 933.704 464.207C926.617 463.554 919.681 460.685 913.556 457.163C904.523 451.97 896.962 444.612 889.879 437.075C882.437 429.164 876.384 420.079 869.882 411.412C864.215 403.851 859.193 395.379 850.283 391.204C837 384.98 829.045 396.377 829.817 408.61C830.74 423.239 836.26 436.864 844.728 448.703C847.729 452.901 850.944 456.953 854.311 460.868C858.421 465.644 869.301 480.021 857.096 482.755C854.251 483.392 851.27 482.596 848.62 481.386C834.569 474.963 824.811 462.683 817.051 449.67C810.364 438.457 805.585 426.212 802.908 413.433C800.664 402.689 800.747 391.805 802.677 380.993C804.293 372.035 808.026 363.567 808.841 354.47C809.239 349.854 806.689 344.398 801.921 343.125C796.35 341.628 791.455 346.193 789.275 350.857C786.362 357.081 786.039 364.466 785.777 371.227C784.941 392.967 790.468 414.747 799.076 434.592C803.364 444.538 808.592 454.052 814.687 463.005C823.203 475.461 833.144 487.009 844.605 496.854C852.651 503.767 861.446 510.273 871.056 514.849C878.263 518.284 887.718 521.368 895.633 518.709C905.064 515.526 908.976 505.223 905.251 496.257C903.027 490.897 898.848 486.583 894.384 482.879C884.646 474.804 874.351 467.395 865.115 458.731C860.276 454.191 855.297 449.443 852.058 443.574C849.826 439.531 846.865 432.379 849.539 427.907C856.845 415.686 877.355 439.976 882.326 444.489C890.125 451.572 897.917 458.739 906.764 464.521C925.033 476.46 946.443 484.14 968.445 480.837C977.156 479.536 985.811 474.144 989.834 466.153C994.192 457.49 991.426 446.387 983.491 440.744C978.043 436.868 973.487 437.031 971.445 437.043C961.724 437.099 948.13 439.391 929.45 430.728C918.998 425.882 909.848 418.618 902.757 409.537C895.666 400.456 890.837 389.818 888.669 378.502C887.873 374.304 886.775 369.584 883.122 366.906C881.858 365.942 880.301 365.445 878.712 365.497L878.633 365.505Z" fill="white"/>
<path d="M1000.95 434.95C1002.1 436.63 1004.14 437.593 1006.18 437.708C1009.41 437.891 1012.36 436.176 1014.84 434.278C1019.95 430.35 1023.99 425.181 1027.36 419.689C1033.93 409.108 1038.32 397.327 1040.3 385.032C1042.35 371.817 1041.59 359.086 1039.53 346.034C1038.59 340.065 1038.4 330.796 1045.13 328.075C1051.99 325.289 1056.36 332.388 1058.89 337.896C1061.88 344.362 1062.87 351.804 1062.87 358.867C1062.87 369.278 1060.3 379.509 1057.3 389.414C1054.17 399.816 1049.34 409.601 1045.07 419.566C1041.37 428.249 1036.53 436.841 1037.37 446.626C1038.62 461.243 1052.46 462.436 1062.68 455.647C1074.88 447.533 1083.91 435.953 1089.95 422.69C1092.08 417.99 1093.98 413.183 1095.69 408.308C1097.78 402.339 1104.78 385.749 1113.24 394.945C1115.23 397.09 1116.02 400.071 1116.29 402.968C1117.75 418.348 1112 432.937 1104.6 446.164C1098.24 457.563 1090.02 467.826 1080.3 476.535C1072.1 483.858 1062.64 489.218 1052.32 492.951C1043.75 496.031 1034.55 497.034 1026.26 500.874C1022.06 502.824 1018.62 507.778 1019.89 512.541C1021.39 518.113 1027.78 520.075 1032.92 519.629C1039.76 519.036 1046.32 515.626 1052.3 512.466C1071.55 502.322 1087.65 486.643 1100.53 469.269C1107 460.582 1112.62 451.298 1117.33 441.544C1123.86 427.939 1128.87 413.553 1131.69 398.71C1133.65 388.283 1134.87 377.416 1134.05 366.802C1133.41 358.844 1131.36 349.114 1125.1 343.59C1117.64 337 1106.75 338.775 1100.85 346.483C1097.32 351.092 1095.67 356.866 1094.69 362.588C1092.57 375.056 1091.3 387.659 1088.41 399.995C1086.9 406.454 1085.28 413.127 1081.82 418.877C1079.43 422.833 1074.72 428.969 1069.51 428.894C1055.27 428.675 1066.05 398.765 1067.47 392.207C1069.71 381.912 1072.02 371.578 1072.6 361.024C1073.8 339.237 1069.75 316.853 1055.89 299.443C1050.41 292.55 1041.41 287.751 1032.48 288.264C1022.8 288.821 1014.57 296.768 1013.65 306.458C1013.02 313.116 1015.44 316.98 1016.47 318.743C1021.38 327.135 1030.16 337.761 1031.99 358.271C1033.03 369.75 1031.33 381.314 1027.02 392.004C1022.7 402.695 1015.91 412.205 1007.19 419.749C1003.96 422.535 1000.43 425.849 999.927 430.354C999.723 431.93 1000.07 433.528 1000.91 434.875C1000.93 434.901 1000.94 434.926 1000.95 434.95V434.95Z" fill="white"/>
<path d="M466.094 608.327C466.094 608.327 446.899 662.887 440.928 679.714C440.928 679.714 427.435 717.417 426.47 720.452C425.206 724.432 422.251 732.691 418.072 732.691C412.628 732.691 409.414 723.576 408.2 720.452C404.22 710.143 402.528 698.51 400.887 687.614C399.021 675.173 397.993 662.62 397.812 650.04C397.749 645.529 398.483 641.042 399.981 636.786L409.932 608.307H385.801C385.801 608.307 366.596 662.867 360.626 679.694C360.626 679.694 347.133 717.397 346.167 720.432C344.914 724.412 341.948 732.671 337.779 732.671C332.326 732.671 329.112 723.557 327.908 720.432C323.927 710.123 322.226 698.491 320.584 687.594C316.751 661.316 316.46 634.643 319.718 608.287H285C285 608.287 311.081 691.266 318.833 710.491C322.664 720.034 332.346 745.478 346.695 745.478C361.044 745.478 365.949 733.249 370.577 720.412C372.935 713.914 379.711 694.65 387.005 673.882C392.737 691.227 397.732 706.312 399.145 710.491C402.439 720.233 412.668 745.478 427.007 745.478C441.346 745.478 446.272 733.249 450.889 720.412C456.76 704.192 490.294 608.287 490.294 608.287L466.094 608.327Z" fill="white"/>
<path d="M1041.16 613.262V742.921H1019.03V608.327C1030.57 608.327 1079.14 608.078 1088.68 608.844C1099.63 609.72 1110.58 611.571 1118.78 619.561C1123.08 623.76 1125.89 629.393 1125.63 635.482C1124.7 658.021 1097.13 663.952 1080.32 670.39C1077.6 671.435 1074.55 672.828 1073.7 675.614C1072.84 678.4 1074.46 681.127 1076.03 683.495C1090.72 705.725 1107.73 726.731 1128.77 743.1H1097.16C1097.16 743.1 1089.47 735.896 1086.22 732.224C1075.19 720.05 1065.46 706.771 1057.16 692.6C1055.33 689.416 1053.52 685.774 1054.45 682.221C1055.23 679.236 1057.74 677.116 1060.25 675.385C1072.73 666.847 1091.45 664.151 1099.44 649.981C1104.62 640.776 1103.51 628.218 1095.84 620.706C1089.53 614.526 1079.83 613.322 1071.4 613.173C1061.66 612.994 1051.85 613.302 1042.14 613.302L1041.16 613.262Z" fill="white"/>
<path d="M752.219 608.327H718.964C742.507 645.553 748.736 685.356 747.015 726.453C742.159 723.467 730.338 717.368 705.709 675.644C694.953 657.404 691.42 651.255 680.275 633.254C673.618 622.517 665.14 605.889 650.343 605.889C643.696 605.889 640.393 608.357 640.393 608.357V743.09H673.638C650.095 705.865 643.875 666.062 645.597 624.965C652.473 624.965 673.459 664.768 679.489 675.714C686.166 687.724 719.7 745.578 742.268 745.578C742.448 745.578 742.079 745.578 742.268 745.578C748.916 745.578 752.219 743.11 752.219 743.11V608.327Z" fill="white"/>
<path d="M556.824 606.078C517.728 606.078 486.024 637.224 486.024 675.644C486.024 714.064 517.728 745.2 556.824 745.2C595.921 745.2 627.624 714.054 627.624 675.644C627.624 637.234 595.941 606.078 556.824 606.078ZM557.421 740.592C533.818 740.592 514.683 711.536 514.683 675.693C514.683 639.851 533.818 610.795 557.421 610.795C581.024 610.795 600.209 639.851 600.209 675.693C600.209 711.536 581.014 740.592 557.421 740.592V740.592Z" fill="white"/>
<path d="M1239.41 743.06V709.875C1217.06 733.01 1191.26 739.259 1166.54 737.826V608.377H1143.65V743.03L1239.41 743.06Z" fill="white"/>
<path d="M807.066 608.327H771.532V743.06H807.086C865.796 743.06 886.175 712.84 886.175 675.654C886.175 638.468 865.766 608.327 807.066 608.327ZM807.723 738.523C803.221 738.522 798.743 737.869 794.429 736.582V736.582V614.845C798.741 613.542 803.219 612.871 807.723 612.855C849.218 612.855 861.457 640.975 861.457 675.674C861.457 710.372 849.218 738.523 807.723 738.523V738.523Z" fill="white"/>
<path d="M1333.16 695.366C1340.81 717.019 1349.96 743.06 1349.96 743.06H1375.09L1334.68 630.935C1330.03 618.099 1325.07 605.869 1310.79 605.869C1296.51 605.869 1286.26 631.114 1282.93 640.856C1279.12 652.15 1249.1 743.06 1249.1 743.06H1283.82C1281.93 727.237 1281.26 711.292 1281.83 695.366H1333.16ZM1284.75 663.753C1286.4 652.877 1288.07 641.244 1292.08 630.915C1293.28 627.791 1296.5 618.676 1301.95 618.676C1306.12 618.676 1309.08 626.955 1310.34 630.915C1311.33 633.95 1324.79 671.654 1324.79 671.654C1326.36 676.042 1328.78 682.997 1331.6 690.888H1282.05C1282.5 681.84 1283.41 672.795 1284.75 663.753V663.753Z" fill="white"/>
<path d="M997.753 743.06L997.544 709.874C975.185 733.01 949.592 739.259 924.904 737.826V677.365C939.83 676.37 955.383 680.052 968.926 694.063L969.036 677.216V674.231L968.926 657.364C955.383 671.375 939.86 675.037 924.904 674.062V613.511C949.512 612.019 972.18 616.347 994.559 639.483L994.768 608.327L923.053 608.377H901.987V743.03H924.874V742.971L997.753 743.06Z" fill="white"/>
<path d="M1497.96 608.327H1464.71C1488.25 645.553 1494.47 685.356 1492.75 726.453C1487.9 723.467 1476.08 717.368 1451.46 675.644C1440.69 657.404 1437.17 651.255 1426.01 633.254C1419.37 622.517 1410.91 605.889 1396.08 605.889C1389.43 605.889 1386.13 608.357 1386.13 608.357V743.09H1419.38C1395.83 705.865 1389.61 666.062 1391.35 624.965C1398.21 624.965 1419.21 664.768 1425.24 675.714C1431.9 687.724 1465.44 745.578 1488.01 745.578C1488.19 745.578 1487.83 745.578 1488.01 745.578C1494.65 745.578 1497.96 743.11 1497.96 743.11V608.327Z" fill="white"/>
<path d="M1555.89 608.327H1520.37V743.06H1555.91C1614.62 743.06 1635 712.84 1635 675.654C1635 638.468 1614.59 608.327 1555.89 608.327ZM1556.55 738.523C1552.05 738.522 1547.57 737.869 1543.25 736.582V736.582V614.845C1547.57 613.542 1552.04 612.871 1556.55 612.855C1598.04 612.855 1610.28 640.975 1610.28 675.674C1610.28 710.372 1598.04 738.523 1556.55 738.523V738.523Z" fill="white"/>
</svg>
