<?xml version="1.0" encoding="UTF-8"?>
<svg width="1786px" height="330px" viewBox="0 0 1786 330" version="1.1" xmlns="http://www.w3.org/2000/svg" xmlns:xlink="http://www.w3.org/1999/xlink">
    <title>identifier-positive-h</title>
    <g id="Page-1" stroke="none" stroke-width="1" fill="none" fill-rule="evenodd">
        <g id="identifier-positive-h" transform="translate(0.688447, -0.000062)" fill="#0E152C" fill-rule="nonzero">
            <path d="M615.883553,97.6030618 C615.883553,97.6030618 596.688553,152.163062 590.717553,168.990062 C590.717553,168.990062 577.224553,206.694062 576.259553,209.729062 C574.995553,213.709062 572.040553,221.968062 567.861553,221.968062 C562.417553,221.968062 559.203553,212.853062 557.989553,209.729062 C554.009553,199.420062 552.317553,187.787062 550.676553,176.891062 C548.810553,164.449062 547.782553,151.896062 547.601553,139.317062 C547.538553,134.806062 548.272553,130.318062 549.770553,126.063062 L559.721553,97.5830618 L535.590553,97.5830618 C535.590553,97.5830618 516.385553,152.144062 510.415553,168.970062 C510.415553,168.970062 496.922553,206.674062 495.956553,209.709062 C494.703553,213.689062 491.737553,221.948062 487.568553,221.948062 C482.115553,221.948062 478.901553,212.833062 477.697553,209.709062 C473.716553,199.400062 472.015553,187.767062 470.373553,176.871062 C466.540553,150.593062 466.249553,123.919062 469.507553,97.5640618 L434.789553,97.5640618 C434.789553,97.5640618 460.870553,180.543062 468.622553,199.768062 C472.453553,209.311062 482.135553,234.755062 496.484553,234.755062 C510.833553,234.755062 515.738553,222.525062 520.366553,209.689062 C522.724553,203.191062 529.500553,183.926062 536.794553,163.159062 C542.526553,180.503062 547.521553,195.589062 548.934553,199.768062 C552.228553,209.510062 562.457553,234.755062 576.796553,234.755062 C591.135553,234.755062 596.061553,222.525062 600.678553,209.689062 C606.549553,193.469062 640.083553,97.5640618 640.083553,97.5640618 L615.883553,97.6030618 Z" id="Path"></path>
            <path d="M1190.95155,102.539062 L1190.95155,232.197062 L1168.82155,232.197062 L1168.82155,97.6030618 C1180.36155,97.6030618 1228.93155,97.3550618 1238.47155,98.1210618 C1249.42155,98.9960618 1260.36155,100.847062 1268.57155,108.838062 C1272.87155,113.037062 1275.68155,118.669062 1275.42155,124.759062 C1274.48155,147.297062 1246.92155,153.228062 1230.10155,159.666062 C1227.39155,160.711062 1224.34155,162.104062 1223.49155,164.890062 C1222.63155,167.677062 1224.25155,170.403062 1225.81155,172.771062 C1240.51155,195.001062 1257.52155,216.007062 1278.55155,232.376062 L1246.95155,232.376062 C1246.95155,232.376062 1239.26155,225.172062 1236.00155,221.500062 C1224.98155,209.326062 1215.25155,196.048062 1206.95155,181.876062 C1205.12155,178.692062 1203.31155,175.050062 1204.24155,171.498062 C1205.02155,168.512062 1207.52155,166.393062 1210.04155,164.662062 C1222.52155,156.124062 1241.24155,153.427062 1249.23155,139.257062 C1254.41155,130.053062 1253.30155,117.495062 1245.63155,109.982062 C1239.32155,103.803062 1229.62155,102.599062 1221.19155,102.449062 C1211.45155,102.270062 1201.63155,102.579062 1191.93155,102.579062 L1190.95155,102.539062 Z" id="Path"></path>
            <path d="M902.008553,97.6040618 L868.753553,97.6040618 C892.296553,134.830062 898.525553,174.633062 896.804553,215.729062 C891.948553,212.744062 880.127553,206.644062 855.498553,164.921062 C844.742553,146.681062 841.209553,140.531062 830.064553,122.530062 C823.407553,111.794062 814.929553,95.1660618 800.132553,95.1660618 C793.485553,95.1660618 790.182553,97.6340618 790.182553,97.6340618 L790.182553,232.367062 L823.427553,232.367062 C799.884553,195.141062 793.664553,155.338062 795.386553,114.242062 C802.262553,114.242062 823.248553,154.045062 829.278553,164.990062 C835.955553,177.001062 869.489553,234.855062 892.057553,234.855062 C892.237553,234.855062 891.868553,234.855062 892.057553,234.855062 C898.705553,234.855062 902.008553,232.387062 902.008553,232.387062 L902.008553,97.6040618 Z" id="Path"></path>
            <path d="M706.613553,95.3550618 C667.517553,95.3550618 635.813553,126.500062 635.813553,164.920062 C635.813553,203.340062 667.517553,234.476062 706.613553,234.476062 C745.710553,234.476062 777.413553,203.330062 777.413553,164.920062 C777.413553,126.510062 745.730553,95.3550618 706.613553,95.3550618 Z M707.210553,229.869062 C683.607553,229.869062 664.472553,200.813062 664.472553,164.970062 C664.472553,129.127062 683.607553,100.071062 707.210553,100.071062 C730.813553,100.071062 749.998553,129.127062 749.998553,164.970062 C749.998553,200.813062 730.803553,229.869062 707.210553,229.869062 L707.210553,229.869062 Z" id="Shape"></path>
            <path d="M1389.20155,232.337062 L1389.20155,199.151062 C1366.85155,222.287062 1341.04155,228.536062 1316.33155,227.103062 L1316.33155,97.6530618 L1293.44155,97.6530618 L1293.44155,232.307062 L1389.20155,232.337062 Z" id="Path"></path>
            <path d="M956.851553,97.6040618 L921.321553,97.6040618 L921.321553,232.337062 L956.871553,232.337062 C1015.58155,232.337062 1035.96155,202.116062 1035.96155,164.930062 C1035.96155,127.744062 1015.55155,97.6040618 956.851553,97.6040618 Z M957.511553,227.799062 C953.011553,227.799062 948.531553,227.145062 944.221553,225.859062 L944.221553,225.859062 L944.221553,104.121062 C948.531553,102.818062 953.011553,102.148062 957.511553,102.131062 C999.011553,102.131062 1011.24155,130.252062 1011.24155,164.950062 C1011.24155,199.649062 999.011553,227.799062 957.511553,227.799062 L957.511553,227.799062 Z" id="Shape"></path>
            <path d="M1482.95155,184.643062 C1490.59155,206.296062 1499.75155,232.337062 1499.75155,232.337062 L1524.87155,232.337062 L1484.46155,120.212062 C1479.82155,107.375062 1474.86155,95.1460618 1460.58155,95.1460618 C1446.30155,95.1460618 1436.04155,120.391062 1432.72155,130.133062 C1428.91155,141.427062 1398.89155,232.337062 1398.89155,232.337062 L1433.61155,232.337062 C1431.72155,216.514062 1431.05155,200.568062 1431.62155,184.643062 L1482.95155,184.643062 Z M1434.54155,153.029062 C1436.18155,142.153062 1437.85155,130.521062 1441.86155,120.192062 C1443.07155,117.067062 1446.28155,107.952062 1451.74155,107.952062 C1455.90155,107.952062 1458.87155,116.231062 1460.12155,120.192062 C1461.12155,123.227062 1474.58155,160.930062 1474.58155,160.930062 C1476.14155,165.318062 1478.56155,172.274062 1481.39155,180.165062 L1431.83155,180.165062 C1432.29155,171.116062 1433.19155,162.071062 1434.54155,153.029062 L1434.54155,153.029062 Z" id="Shape"></path>
            <path d="M1147.54155,232.337062 L1147.33155,199.151062 C1124.97155,222.287062 1099.38155,228.536062 1074.69155,227.103062 L1074.69155,166.642062 C1089.62155,165.647062 1105.17155,169.329062 1118.71155,183.339062 L1118.82155,166.493062 L1118.82155,163.507062 L1118.71155,146.641062 C1105.17155,160.652062 1089.65155,164.314062 1074.69155,163.338062 L1074.69155,102.788062 C1099.30155,101.295062 1121.97155,105.624062 1144.35155,128.759062 L1144.56155,97.6040618 L1072.84155,97.6530618 L1051.78155,97.6530618 L1051.78155,232.307062 L1074.66155,232.307062 L1074.66155,232.247062 L1147.54155,232.337062 Z" id="Path"></path>
            <path d="M1647.75155,97.6040618 L1614.50155,97.6040618 C1638.03155,134.830062 1644.26155,174.633062 1642.54155,215.729062 C1637.69155,212.744062 1625.86155,206.644062 1601.25155,164.921062 C1590.48155,146.681062 1586.96155,140.531062 1575.80155,122.530062 C1569.15155,111.794062 1560.70155,95.1660618 1545.87155,95.1660618 C1539.22155,95.1660618 1535.92155,97.6340618 1535.92155,97.6340618 L1535.92155,232.367062 L1569.16155,232.367062 C1545.62155,195.141062 1539.40155,155.338062 1541.13155,114.242062 C1548.00155,114.242062 1569.00155,154.045062 1575.03155,164.990062 C1581.69155,177.001062 1615.23155,234.855062 1637.79155,234.855062 C1637.97155,234.855062 1637.62155,234.855062 1637.79155,234.855062 C1644.44155,234.855062 1647.75155,232.387062 1647.75155,232.387062 L1647.75155,97.6040618 Z" id="Path"></path>
            <path d="M1705.68155,97.6040618 L1670.16155,97.6040618 L1670.16155,232.337062 L1705.70155,232.337062 C1764.41155,232.337062 1784.79155,202.116062 1784.79155,164.930062 C1784.79155,127.744062 1764.38155,97.6040618 1705.68155,97.6040618 Z M1706.34155,227.799062 C1701.83155,227.799062 1697.36155,227.145062 1693.04155,225.859062 L1693.04155,225.859062 L1693.04155,104.121062 C1697.35155,102.818062 1701.83155,102.148062 1706.34155,102.131062 C1747.83155,102.131062 1760.07155,130.252062 1760.07155,164.950062 C1760.07155,199.649062 1747.83155,227.799062 1706.34155,227.799062 L1706.34155,227.799062 Z" id="Shape"></path>
            <path d="M214.233553,104.576062 C215.112553,102.737062 214.925553,100.493062 214.010553,98.6700618 C212.554553,95.7810618 209.593553,94.0860618 206.708553,92.8920618 C200.739553,90.4250618 194.256553,89.5140618 187.813553,89.3380618 C175.368553,88.9430618 162.968553,91.0250618 151.334553,95.4630618 C138.858553,100.290062 128.217553,107.314062 117.950553,115.627062 C113.259553,119.415062 105.300553,124.214062 99.5975531,119.753062 C93.7675531,115.201062 97.7195531,107.871062 101.217553,102.920062 C105.328553,97.1100618 111.281553,92.5340618 117.393553,88.9920618 C126.391553,83.7710618 136.558553,80.8860618 146.626553,78.5300618 C157.200553,76.0430618 168.095553,75.3470618 178.860553,74.0450618 C188.239553,72.9150618 198.092553,72.8040618 206.167553,67.1770618 C218.196553,58.7840618 212.307553,46.2010618 201.320553,40.7490618 C188.188553,34.2350618 173.647553,32.2100618 159.138553,33.6140618 C153.996553,34.1160618 148.883553,34.8720618 143.809553,35.8310618 C137.609553,37.0010618 119.725553,39.2370618 123.462553,27.3190618 C124.333553,24.5330618 126.514553,22.3530618 128.886553,20.6650618 C141.473553,11.7080618 156.985553,9.39106179 172.138553,9.18506179 C185.192553,8.99906179 198.187553,10.9810618 210.592553,15.0500618 C221.030553,18.4880618 230.401553,23.9960618 238.798553,31.0750618 C245.750553,36.9490618 251.218553,44.4190618 258.695553,49.6750618 C262.484553,52.3420618 268.497553,52.8590618 271.983553,49.3530618 C276.069553,45.2620618 274.557553,38.7520618 271.608553,34.5340618 C267.673553,28.8990618 261.441553,24.9270618 255.715553,21.3220618 C237.306553,9.72606179 215.677553,3.62506179 194.192553,1.15806179 C183.435553,-0.102938212 172.582553,-0.334938212 161.780553,0.466061788 C146.734553,1.61606179 131.759553,4.44506179 117.505553,9.45106179 C107.496553,12.9610618 97.4645531,17.3260618 88.6985531,23.3790618 C82.1205531,27.9040618 74.7225531,34.5490618 73.0625531,42.7310618 C71.0735531,52.4850618 78.0725531,61.0370618 87.6995531,62.2900618 C93.4535531,63.0420618 99.2795531,61.5820618 104.723553,59.5640618 C116.581553,55.1870618 128.146553,49.9580618 140.267553,46.2930618 C146.634553,44.3710618 153.216553,42.4330618 159.922553,42.5640618 C164.538553,42.6560618 172.210553,43.6620618 174.749553,48.2150618 C181.681553,60.6550618 150.387553,66.2740618 143.996553,68.3190618 C133.960553,71.5340618 123.856553,74.6860618 114.425553,79.4610618 C94.9535531,89.3110618 77.5995531,104.011062 69.4575531,124.712062 C66.2305531,132.905062 66.5725531,143.097062 71.4825531,150.578062 C76.8075531,158.688062 87.7985531,161.840062 96.6565531,157.793062 C102.737553,155.007062 104.878553,150.984062 105.885553,149.209062 C110.696553,140.761062 115.511553,127.843062 132.352553,116.001062 C141.776553,109.367062 152.643553,105.071062 164.056553,103.468062 C175.468553,101.866062 187.098553,103.002062 197.985553,106.784062 C202.020553,108.181062 206.652553,109.602062 210.799553,107.775062 C212.265553,107.164062 213.474553,106.065062 214.221553,104.663062 L214.233553,104.576062 Z" id="Path"></path>
            <path d="M92.9395531,175.792062 C90.9065531,175.947062 89.0555531,177.232062 87.9375531,178.939062 C86.1585531,181.645062 86.1745531,185.056062 86.5805531,188.152062 C87.4235531,194.543062 89.8835531,200.623062 92.9475531,206.294062 C98.8285531,217.269062 106.830553,226.966062 116.489553,234.823062 C126.915553,243.211062 138.328553,248.914062 150.665553,253.653062 C156.288553,255.810062 164.422553,260.299062 163.399553,267.482062 C162.372553,274.804062 154.047553,275.043062 148.010553,274.494062 C140.923553,273.841062 133.987553,270.972062 127.863553,267.450062 C118.829553,262.257062 111.268553,254.899062 104.185553,247.362062 C96.7435531,239.451062 90.6915531,230.366062 84.1885531,221.698062 C78.5215531,214.137062 73.4995531,205.665062 64.5895531,201.491062 C51.3065531,195.267062 43.3515531,206.664062 44.1235531,218.897062 C45.0465531,233.525062 50.5665531,247.151062 59.0345531,258.990062 C62.0355531,263.188062 65.2505531,267.239062 68.6175531,271.155062 C72.7275531,275.930062 83.6075531,290.308062 71.4025531,293.042062 C68.5575531,293.679062 65.5765531,292.883062 62.9265531,291.673062 C48.8755531,285.250062 39.1175531,272.970062 31.3575531,259.957062 C24.6705531,248.744062 19.8912531,236.498062 17.2148531,223.720062 C14.9703531,212.976062 15.0539531,202.092062 16.9839531,191.280062 C18.5996531,182.322062 22.3323531,173.854062 23.1481531,164.757062 C23.5460531,160.140062 20.9952531,154.685062 16.2278531,153.411062 C10.6566531,151.915062 5.7619531,156.479062 3.5812531,161.143062 C0.668253103,167.367062 0.345953103,174.753062 0.0832531025,181.514062 C-0.752346897,203.254062 4.7750531,225.033062 13.3825531,244.879062 C17.6707531,254.825062 22.8982531,264.339062 28.9939531,273.292062 C37.5095531,285.748062 47.4505531,297.296062 58.9115531,307.141062 C66.9575531,314.053062 75.7525531,320.560062 85.3625531,325.136062 C92.5695531,328.570062 102.024553,331.654062 109.939553,328.996062 C119.370553,325.813062 123.282553,315.510062 119.557553,306.544062 C117.333553,301.184062 113.155553,296.870062 108.690553,293.165062 C98.9525531,285.091062 88.6575531,277.681062 79.4215531,269.018062 C74.5825531,264.477062 69.6045531,259.730062 66.3645531,253.860062 C64.1325531,249.817062 61.1715531,242.666062 63.8455531,238.193062 C71.1525531,225.972062 91.6625531,250.263062 96.6325531,254.776062 C104.432553,261.859062 112.223553,269.026062 121.070553,274.808062 C139.339553,286.746062 160.749553,294.427062 182.751553,291.124062 C191.462553,289.822062 200.117553,284.430062 204.140553,276.440062 C208.498553,267.776062 205.732553,256.674062 197.797553,251.031062 C192.349553,247.155062 187.793553,247.318062 185.751553,247.330062 C176.030553,247.386062 162.436553,249.678062 143.756553,241.015062 C133.304553,236.168062 124.154553,228.904062 117.063553,219.823062 C109.972553,210.742062 105.143553,200.104062 102.975553,188.788062 C102.179553,184.590062 101.081553,179.871062 97.4285531,177.192062 C96.1645531,176.229062 94.6075531,175.731062 93.0195531,175.784062 L92.9395531,175.792062 Z" id="Path"></path>
            <path d="M215.260553,245.237062 C216.410553,246.916062 218.444553,247.879062 220.489553,247.995062 C223.720553,248.178062 226.669553,246.463062 229.144553,244.564062 C234.254553,240.637062 238.297553,235.467062 241.668553,229.976062 C248.232553,219.394062 252.630553,207.614062 254.605553,195.319062 C256.658553,182.103062 255.898553,169.373062 253.833553,156.320062 C252.894553,150.351062 252.711553,141.083062 259.436553,138.361062 C266.292553,135.576062 270.666553,142.675062 273.201553,148.182062 C276.181553,154.649062 277.180553,162.091062 277.180553,169.154062 C277.180553,179.564062 274.606553,189.795062 271.609553,199.700062 C268.477553,210.103062 263.650553,219.888062 259.380553,229.852062 C255.675553,238.536062 250.840553,247.127062 251.680553,256.913062 C252.929553,271.529062 266.770553,272.723062 276.985553,265.934062 C289.190553,257.820062 298.219553,246.240062 304.252553,232.976062 C306.389553,228.277062 308.287553,223.469062 309.995553,218.595062 C312.084553,212.625062 319.088553,196.035062 327.544553,205.232062 C329.534553,207.377062 330.330553,210.357062 330.592553,213.254062 C332.053553,228.635062 326.306553,243.223062 318.909553,256.451062 C312.542553,267.849062 304.328553,278.113062 294.602553,286.822062 C286.405553,294.144062 276.949553,299.505062 266.623553,303.237062 C258.059553,306.317062 248.855553,307.320062 240.565553,311.160062 C236.363553,313.110062 232.925553,318.065062 234.198553,322.828062 C235.699553,328.399062 242.090553,330.361062 247.223553,329.915062 C254.068553,329.323062 260.622553,325.912062 266.607553,322.752062 C285.855553,312.609062 301.952553,296.930062 314.834553,279.556062 C321.303553,270.868062 326.930553,261.585062 331.639553,251.831062 C338.165553,238.225062 343.179553,223.840062 345.993553,208.996062 C347.959553,198.570062 349.176553,187.702062 348.352553,177.089062 C347.720553,169.130062 345.662553,159.400062 339.407553,153.877062 C331.949553,147.287062 321.054553,149.062062 315.152553,156.770062 C311.622553,161.378062 309.979553,167.152062 309.000553,172.875062 C306.875553,185.342062 305.605553,197.945062 302.720553,210.282062 C301.208553,216.740062 299.588553,223.414062 296.122553,229.164062 C293.735553,233.120062 289.027553,239.256062 283.814553,239.180062 C269.575553,238.961062 280.360553,209.052062 281.780553,202.494062 C284.013553,192.199062 286.329553,181.864062 286.910553,171.311062 C288.104553,149.524062 284.061553,127.139062 270.196553,109.729062 C264.717553,102.837062 255.719553,98.0380618 246.785553,98.5510618 C237.103553,99.1080618 228.878553,107.055062 227.955553,116.745062 C227.322553,123.402062 229.741553,127.267062 230.772553,129.029062 C235.683553,137.422062 244.461553,148.047062 246.292553,168.557062 C247.336553,180.037062 245.633553,191.600062 241.322553,202.291062 C237.010553,212.981062 230.216553,222.492062 221.500553,230.036062 C218.269553,232.821062 214.735553,236.136062 214.233553,240.641062 C214.029553,242.216062 214.377553,243.814062 215.220553,245.161062 C215.232553,245.187062 215.245553,245.213062 215.260553,245.237062 L215.260553,245.237062 Z" id="Path"></path>
        </g>
    </g>
</svg>