<svg width="1921" height="1080" viewBox="0 0 1921 1080" fill="none" xmlns="http://www.w3.org/2000/svg">
<rect width="1920" height="1080" transform="translate(0.686523)" fill="white"/>
<path d="M302.145 450.138C302.145 450.138 276.552 522.884 268.591 545.32C268.591 545.32 250.6 595.591 249.313 599.638C247.628 604.945 243.688 615.957 238.115 615.957C230.858 615.957 226.572 603.804 224.954 599.638C219.647 585.892 217.391 570.383 215.202 555.854C212.714 539.266 211.344 522.528 211.102 505.756C211.018 499.74 211.997 493.758 213.995 488.083L227.262 450.111H195.088C195.088 450.111 169.481 522.858 161.521 545.293C161.521 545.293 143.53 595.565 142.243 599.611C140.571 604.918 136.617 615.93 131.058 615.93C123.788 615.93 119.502 603.777 117.897 599.611C112.59 585.866 110.321 570.356 108.132 555.828C103.021 520.79 102.633 485.225 106.977 450.084H60.6865C60.6865 450.084 95.4611 560.724 105.797 586.357C110.905 599.08 123.814 633.006 142.946 633.006C162.078 633.006 168.619 616.7 174.789 599.585C177.933 590.921 186.968 565.235 196.694 537.545C204.336 560.671 210.996 580.784 212.88 586.357C217.272 599.346 230.911 633.006 250.03 633.006C269.148 633.006 275.716 616.7 281.872 599.585C289.7 577.958 334.412 450.084 334.412 450.084L302.145 450.138Z" fill="#0E152C"/>
<path d="M1068.9 456.719V629.596H1039.39V450.138C1054.78 450.138 1119.54 449.806 1132.26 450.828C1146.86 451.995 1161.45 454.463 1172.4 465.117C1178.13 470.716 1181.87 478.225 1181.53 486.345C1180.28 516.397 1143.53 524.304 1121.11 532.888C1117.48 534.281 1113.42 536.139 1112.28 539.854C1111.14 543.569 1113.31 547.204 1115.39 550.362C1134.98 580.002 1157.66 608.01 1185.71 629.835H1143.57C1143.57 629.835 1133.31 620.229 1128.97 615.334C1114.28 599.101 1101.3 581.397 1090.23 562.502C1087.79 558.256 1085.38 553.4 1086.62 548.664C1087.66 544.683 1091 541.857 1094.36 539.549C1111 528.165 1135.95 524.569 1146.61 505.676C1153.52 493.404 1152.03 476.66 1141.8 466.643C1133.39 458.404 1120.46 456.798 1109.22 456.599C1096.23 456.36 1083.15 456.772 1070.21 456.772L1068.9 456.719Z" fill="#0E152C"/>
<path d="M683.645 450.138H639.305C670.696 499.773 679.002 552.843 676.706 607.639C670.232 603.658 654.47 595.525 621.632 539.894C607.29 515.574 602.58 507.375 587.72 483.374C578.844 469.058 567.54 446.888 547.811 446.888C538.948 446.888 534.543 450.178 534.543 450.178V629.822H578.871C547.479 580.188 539.187 527.117 541.482 472.322C550.65 472.322 578.632 525.392 586.672 539.987C595.575 556.001 640.287 633.139 670.378 633.139C670.617 633.139 670.126 633.139 670.378 633.139C679.241 633.139 683.645 629.849 683.645 629.849V450.138Z" fill="#0E152C"/>
<path d="M423.119 447.139C370.99 447.139 328.719 488.667 328.719 539.894C328.719 591.12 370.99 632.635 423.119 632.635C475.248 632.635 517.519 591.107 517.519 539.894C517.519 488.68 475.274 447.139 423.119 447.139ZM423.915 626.492C392.444 626.492 366.93 587.75 366.93 539.96C366.93 492.17 392.444 453.428 423.915 453.428C455.386 453.428 480.966 492.17 480.966 539.96C480.966 587.75 455.373 626.492 423.915 626.492V626.492Z" fill="#0E152C"/>
<path d="M1333.23 629.782V585.535C1303.43 616.382 1269.03 624.714 1236.07 622.803V450.204H1205.56V629.742L1333.23 629.782Z" fill="#0E152C"/>
<path d="M756.775 450.138H709.396V629.782H756.801C835.08 629.782 862.253 589.488 862.253 539.907C862.253 490.326 835.041 450.138 756.775 450.138ZM757.65 623.732C751.648 623.731 745.677 622.86 739.925 621.145V621.145V458.828C745.674 457.091 751.644 456.197 757.65 456.175C812.977 456.175 829.296 493.669 829.296 539.933C829.296 586.198 812.977 623.732 757.65 623.732V623.732Z" fill="#0E152C"/>
<path d="M1458.24 566.19C1468.43 595.061 1480.63 629.782 1480.63 629.782H1514.13L1460.25 480.282C1454.06 463.167 1447.45 446.861 1428.41 446.861C1409.37 446.861 1395.69 480.521 1391.26 493.51C1386.18 508.569 1346.15 629.782 1346.15 629.782H1392.44C1389.92 608.685 1389.04 587.424 1389.79 566.19H1458.24ZM1393.69 524.039C1395.88 509.537 1398.11 494.027 1403.45 480.256C1405.06 476.09 1409.35 463.936 1416.62 463.936C1422.18 463.936 1426.13 474.975 1427.8 480.256C1429.13 484.302 1447.08 534.573 1447.08 534.573C1449.16 540.424 1452.39 549.699 1456.15 560.22H1390.08C1390.69 548.155 1391.89 536.095 1393.69 524.039V524.039Z" fill="#0E152C"/>
<path d="M1011.02 629.782L1010.75 585.534C980.933 616.382 946.809 624.714 913.892 622.803V542.189C933.793 540.862 954.531 545.771 972.588 564.452L972.734 541.99V538.01L972.588 515.521C954.531 534.202 933.833 539.084 913.892 537.784V457.05C946.703 455.06 976.926 460.832 1006.77 491.679L1007.04 450.138L911.424 450.204H883.336V629.742H913.852V629.663L1011.02 629.782Z" fill="#0E152C"/>
<path d="M1677.96 450.138H1633.64C1665.01 499.773 1673.32 552.843 1671.02 607.639C1664.55 603.658 1648.79 595.525 1615.96 539.894C1601.61 515.574 1596.91 507.375 1582.04 483.374C1573.17 469.058 1561.9 446.888 1542.13 446.888C1533.27 446.888 1528.86 450.178 1528.86 450.178V629.822H1573.19C1541.8 580.188 1533.5 527.117 1535.81 472.322C1544.97 472.322 1572.96 525.392 1581 539.987C1589.89 556.001 1634.6 633.139 1664.7 633.139C1664.93 633.139 1664.46 633.139 1664.7 633.139C1673.56 633.139 1677.96 629.849 1677.96 629.849V450.138Z" fill="#0E152C"/>
<path d="M1755.21 450.138H1707.84V629.782H1755.23C1833.51 629.782 1860.69 589.488 1860.69 539.907C1860.69 490.326 1833.47 450.138 1755.21 450.138ZM1756.08 623.732C1750.08 623.731 1744.11 622.86 1738.36 621.145V621.145V458.828C1744.11 457.091 1750.08 456.197 1756.08 456.175C1811.41 456.175 1827.73 493.669 1827.73 539.933C1827.73 586.198 1811.41 623.732 1756.08 623.732V623.732Z" fill="#0E152C"/>
</svg>
