<svg width="1921" height="1080" viewBox="0 0 1921 1080" fill="none" xmlns="http://www.w3.org/2000/svg">
<rect width="1920" height="1080" transform="translate(0.45752)" fill="white"/>
<path d="M1040.77 419.151C1042.53 415.474 1042.15 410.986 1040.32 407.34C1037.41 401.562 1031.49 398.172 1025.72 395.784C1013.78 390.85 1000.81 389.027 987.929 388.677C963.038 387.887 938.238 392.05 914.97 400.926C890.019 410.58 868.736 424.627 848.203 441.253C838.819 448.83 822.901 458.428 811.496 449.507C799.836 440.402 807.74 425.741 814.735 415.84C822.957 404.221 834.864 395.068 847.088 387.984C865.083 377.542 885.418 371.772 905.554 367.061C926.701 362.086 948.492 360.693 970.021 358.091C988.78 355.831 1008.49 355.608 1024.63 344.354C1048.69 327.569 1036.92 302.403 1014.94 291.499C988.677 278.47 959.595 274.419 930.577 277.229C920.294 278.231 910.067 279.744 899.919 281.662C887.519 284.002 851.752 288.475 859.226 264.638C860.969 259.066 865.33 254.705 870.074 251.33C895.248 233.415 926.271 228.783 956.579 228.369C982.687 227.999 1008.68 231.963 1033.49 240.1C1054.36 246.977 1073.1 257.992 1089.9 272.151C1103.8 283.898 1114.74 298.837 1129.69 309.351C1137.27 314.683 1149.29 315.718 1156.27 308.706C1164.44 300.524 1161.42 287.504 1155.52 279.067C1147.65 267.797 1135.18 259.854 1123.73 252.644C1086.91 229.452 1043.66 217.251 1000.69 212.316C979.172 209.794 957.465 209.331 935.862 210.931C905.769 213.231 875.82 218.89 847.311 228.902C827.295 235.922 807.23 244.653 789.697 256.758C776.541 265.808 761.745 279.099 758.426 295.462C754.447 314.97 768.447 332.073 787.699 334.58C799.208 336.085 810.86 333.164 821.747 329.129C845.465 320.374 868.593 309.916 892.836 302.586C905.57 298.742 918.734 294.866 932.145 295.128C941.377 295.311 956.722 297.325 961.8 306.43C975.664 331.309 913.075 342.547 900.293 346.638C880.221 353.069 860.014 359.372 841.151 368.923C802.208 388.621 767.5 418.021 751.216 459.423C744.761 475.811 745.446 496.193 755.267 511.156C765.916 527.376 787.898 533.68 805.615 525.585C817.776 520.014 822.058 511.968 824.071 508.418C833.694 491.521 843.324 465.687 877.006 442.001C895.853 428.734 917.588 420.142 940.413 416.937C963.238 413.732 986.499 416.005 1008.27 423.569C1016.34 426.362 1025.61 429.203 1033.9 425.55C1036.83 424.329 1039.25 422.13 1040.74 419.326L1040.77 419.151Z" fill="#0E152C"/>
<path d="M798.181 561.583C794.114 561.894 790.413 564.464 788.176 567.879C784.619 573.291 784.651 580.112 785.463 586.304C787.15 599.085 792.068 611.247 798.197 622.588C809.959 644.537 825.964 663.931 845.281 679.645C866.134 696.423 888.96 707.828 913.632 717.307C924.878 721.62 941.146 730.598 939.101 744.964C937.047 759.608 920.397 760.086 908.324 758.987C894.149 757.682 880.277 751.944 868.028 744.9C849.961 734.514 834.839 719.798 820.673 704.724C805.79 688.901 793.684 670.731 780.679 653.397C769.346 638.275 759.302 621.331 741.482 612.982C714.915 600.534 699.005 623.328 700.549 647.794C702.396 677.051 713.435 704.302 730.371 727.98C736.372 736.376 742.803 744.478 749.536 752.31C757.758 761.86 779.517 790.616 755.107 796.084C749.417 797.357 743.456 795.765 738.155 793.346C710.052 780.5 690.537 755.939 675.017 729.914C661.643 707.487 652.084 682.997 646.731 657.44C642.242 635.951 642.41 614.183 646.27 592.559C649.501 574.644 656.966 557.707 658.598 539.513C659.394 530.281 654.292 519.369 644.757 516.823C633.615 513.83 623.826 522.959 619.464 532.287C613.638 544.734 612.994 559.506 612.468 573.028C610.797 616.507 621.852 660.066 639.067 699.757C647.643 719.649 658.098 738.678 670.29 756.584C687.322 781.495 707.203 804.592 730.124 824.282C746.217 838.107 763.806 851.119 783.027 860.272C797.441 867.141 816.351 873.309 832.181 867.992C851.044 861.625 858.867 841.019 851.418 823.088C846.969 812.368 838.612 803.74 829.682 796.33C810.207 780.182 789.617 765.362 771.144 748.036C761.466 738.955 751.51 729.46 745.031 717.721C740.566 709.634 734.645 695.332 739.993 686.386C754.606 661.945 795.626 710.526 805.567 719.551C821.166 733.718 836.75 748.052 854.442 759.616C890.981 783.493 933.8 798.853 977.805 792.247C995.227 789.645 1012.54 778.861 1020.58 762.879C1029.3 745.553 1023.77 723.347 1007.9 712.062C997.002 704.31 987.889 704.636 983.806 704.66C964.362 704.771 937.175 709.356 899.816 692.029C878.91 682.336 860.61 667.809 846.428 649.647C832.246 631.484 822.589 610.209 818.253 587.577C816.661 579.18 814.465 569.741 807.158 564.385C804.631 562.458 801.516 561.462 798.34 561.567L798.181 561.583Z" fill="#0E152C"/>
<path d="M1042.82 700.474C1045.12 703.832 1049.19 705.758 1053.28 705.989C1059.74 706.355 1065.64 702.925 1070.59 699.129C1080.81 691.273 1088.9 680.935 1095.64 669.951C1108.77 648.788 1117.56 625.228 1121.51 600.638C1125.62 574.206 1124.1 548.746 1119.97 522.641C1118.09 510.702 1117.72 492.166 1131.17 486.722C1144.89 481.151 1153.63 495.35 1158.7 506.365C1164.67 519.298 1166.66 534.181 1166.66 548.308C1166.66 569.128 1161.51 589.591 1155.52 609.4C1149.26 630.205 1139.6 649.776 1131.06 669.705C1123.65 687.071 1113.98 704.254 1115.66 723.825C1118.16 753.058 1145.84 755.446 1166.27 741.868C1190.68 725.64 1208.74 702.479 1220.81 675.952C1225.08 666.553 1228.88 656.939 1232.29 647.189C1236.47 635.251 1250.48 602.07 1267.39 620.463C1271.37 624.753 1272.96 630.714 1273.49 636.508C1276.41 667.269 1264.92 696.447 1250.12 722.902C1237.39 745.699 1220.96 766.225 1201.51 783.644C1185.11 798.288 1166.2 809.009 1145.55 816.474C1128.42 822.635 1110.01 824.64 1093.43 832.32C1085.03 836.22 1078.15 846.129 1080.7 855.656C1083.7 866.798 1096.48 870.722 1106.75 869.831C1120.44 868.645 1133.55 861.824 1145.52 855.505C1184.01 835.218 1216.21 803.86 1241.97 769.111C1254.91 751.737 1266.16 733.17 1275.58 713.662C1288.63 686.45 1298.66 657.679 1304.29 627.992C1308.22 607.14 1310.66 585.404 1309.01 564.178C1307.74 548.26 1303.63 528.801 1291.12 517.754C1276.2 504.574 1254.41 508.124 1242.61 523.54C1235.55 532.756 1232.26 544.305 1230.3 555.749C1226.05 580.685 1223.51 605.89 1217.74 630.563C1214.72 643.48 1211.48 656.827 1204.55 668.328C1199.77 676.239 1190.36 688.512 1179.93 688.36C1151.45 687.923 1173.02 628.104 1175.86 614.987C1180.33 594.398 1184.96 573.729 1186.12 552.622C1188.51 509.047 1180.42 464.278 1152.7 429.458C1141.74 415.673 1123.74 406.075 1105.87 407.102C1086.51 408.216 1070.06 424.11 1068.21 443.489C1066.95 456.805 1071.79 464.533 1073.85 468.059C1083.67 484.844 1101.23 506.094 1104.89 547.114C1106.98 570.073 1103.57 593.2 1094.95 614.582C1086.32 635.963 1072.73 654.984 1055.3 670.071C1048.84 675.642 1041.77 682.272 1040.77 691.281C1040.36 694.433 1041.06 697.628 1042.74 700.322C1042.77 700.375 1042.79 700.425 1042.82 700.474V700.474Z" fill="#0E152C"/>
</svg>
