<?xml version="1.0" encoding="UTF-8"?>
<svg width="698px" height="660px" viewBox="0 0 698 660" version="1.1" xmlns="http://www.w3.org/2000/svg" xmlns:xlink="http://www.w3.org/1999/xlink">
    <title>symbol-negative</title>
    <g id="Page-1" stroke="none" stroke-width="1" fill="none" fill-rule="evenodd">
        <g id="symbol-negative" transform="translate(0.301534, 0.000083)" fill="#FFFFFF" fill-rule="nonzero">
            <path d="M428.468466,209.150917 C430.228466,205.473917 429.848466,200.985917 428.018466,197.339917 C425.108466,191.561917 419.188466,188.171917 413.418466,185.783917 C401.478466,180.849917 388.508466,179.026917 375.627466,178.676917 C350.736466,177.886917 325.936466,182.049917 302.668466,190.925917 C277.717466,200.579917 256.434466,214.626917 235.901466,231.252917 C226.517466,238.829917 210.599466,248.427917 199.194466,239.506917 C187.534466,230.401917 195.438466,215.740917 202.433466,205.839917 C210.655466,194.220917 222.562466,185.067917 234.786466,177.983917 C252.781466,167.541917 273.116466,161.771917 293.252466,157.060917 C314.399466,152.085917 336.190466,150.692917 357.719466,148.090917 C376.478466,145.830917 396.188466,145.607917 412.328466,134.353917 C436.388466,117.568917 424.618466,92.4029169 402.638466,81.4989169 C376.375466,68.4699169 347.293466,64.4189169 318.275466,67.2289169 C307.992466,68.2309169 297.765466,69.7439169 287.617466,71.6619169 C275.217466,74.0019169 239.450466,78.4749169 246.924466,54.6379169 C248.667466,49.0659169 253.028466,44.7049169 257.772466,41.3299169 C282.946466,23.4149169 313.969466,18.7829169 344.277466,18.3689169 C370.385466,17.9989169 396.378466,21.9629169 421.188466,30.0999169 C442.058466,36.9769169 460.798466,47.9919169 477.598466,62.1509169 C491.498466,73.8979169 502.438466,88.8369169 517.388466,99.3509169 C524.968466,104.682917 536.988466,105.717917 543.968466,98.7059169 C552.138466,90.5239169 549.118466,77.5039169 543.218466,69.0669169 C535.348466,57.7969169 522.878466,49.8539169 511.428466,42.6439169 C474.608466,19.4519169 431.358466,7.25091686 388.388466,2.31591686 C366.870466,-0.206083142 345.163466,-0.669083142 323.560466,0.930916858 C293.467466,3.23091686 263.518466,8.88991686 235.009466,18.9019169 C214.993466,25.9219169 194.928466,34.6529169 177.395466,46.7579169 C164.239466,55.8079169 149.443466,69.0989169 146.124466,85.4619169 C142.145466,104.969917 156.145466,122.072917 175.397466,124.579917 C186.906466,126.084917 198.558466,123.163917 209.445466,119.128917 C233.163466,110.373917 256.291466,99.9159169 280.534466,92.5859169 C293.268466,88.7419169 306.432466,84.8659169 319.843466,85.1279169 C329.075466,85.3109169 344.420466,87.3249169 349.498466,96.4299169 C363.362466,121.308917 300.773466,132.546917 287.991466,136.637917 C267.919466,143.068917 247.712466,149.371917 228.849466,158.922917 C189.906466,178.620917 155.198466,208.020917 138.914466,249.422917 C132.459466,265.810917 133.144466,286.192917 142.965466,301.155917 C153.614466,317.375917 175.596466,323.679917 193.313466,315.584917 C205.474466,310.013917 209.756466,301.967917 211.769466,298.417917 C221.392466,281.520917 231.022466,255.686917 264.704466,232.000917 C283.551466,218.733917 305.286466,210.141917 328.111466,206.936917 C350.936466,203.731917 374.197466,206.004917 395.968466,213.568917 C404.038466,216.361917 413.308466,219.202917 421.598466,215.549917 C424.528466,214.328917 426.948466,212.129917 428.438466,209.325917 L428.468466,209.150917 Z" id="Path"></path>
            <path d="M185.879466,351.582917 C181.812466,351.893917 178.111466,354.463917 175.874466,357.878917 C172.317466,363.290917 172.349466,370.111917 173.161466,376.303917 C174.848466,389.084917 179.766466,401.246917 185.895466,412.587917 C197.657466,434.536917 213.662466,453.930917 232.979466,469.644917 C253.832466,486.422917 276.658466,497.827917 301.330466,507.306917 C312.576466,511.619917 328.844466,520.597917 326.799466,534.963917 C324.745466,549.607917 308.095466,550.085917 296.022466,548.986917 C281.847466,547.681917 267.975466,541.943917 255.726466,534.899917 C237.659466,524.513917 222.537466,509.797917 208.371466,494.723917 C193.488466,478.900917 181.382466,460.730917 168.377466,443.396917 C157.044466,428.274917 147.000466,411.330917 129.180466,402.981917 C102.613466,390.533917 86.7034662,413.327917 88.2474662,437.793917 C90.0944662,467.050917 101.133466,494.301917 118.069466,517.979917 C124.070466,526.375917 130.501466,534.477917 137.234466,542.309917 C145.456466,551.859917 167.215466,580.615917 142.805466,586.083917 C137.115466,587.356917 131.154466,585.764917 125.853466,583.345917 C97.7504662,570.499917 78.2354662,545.938917 62.7154662,519.913917 C49.3414662,497.486917 39.7824662,472.996917 34.4294662,447.439917 C29.9404662,425.950917 30.1084662,404.182917 33.9684662,382.558917 C37.1994662,364.643917 44.6644662,347.706917 46.2964662,329.512917 C47.0924662,320.280917 41.9904662,309.368917 32.4554662,306.822917 C21.3134662,303.829917 11.5244662,312.958917 7.16246618,322.286917 C1.33646618,334.733917 0.69246618,349.505917 0.16646618,363.027917 C-1.50453382,406.506917 9.55046618,450.065917 26.7654662,489.756917 C35.3414662,509.648917 45.7964662,528.677917 57.9884662,546.583917 C75.0204662,571.494917 94.9014662,594.591917 117.822466,614.281917 C133.915466,628.106917 151.504466,641.118917 170.725466,650.271917 C185.139466,657.140917 204.049466,663.308917 219.879466,657.991917 C238.742466,651.624917 246.565466,631.018917 239.116466,613.087917 C234.667466,602.367917 226.310466,593.739917 217.380466,586.329917 C197.905466,570.181917 177.315466,555.361917 158.842466,538.035917 C149.164466,528.954917 139.208466,519.459917 132.729466,507.720917 C128.264466,499.633917 122.343466,485.331917 127.691466,476.385917 C142.304466,451.944917 183.324466,500.525917 193.265466,509.550917 C208.864466,523.717917 224.448466,538.051917 242.140466,549.615917 C278.679466,573.492917 321.498466,588.852917 365.503466,582.246917 C382.925466,579.644917 400.238466,568.860917 408.278466,552.878917 C416.998466,535.552917 411.468466,513.346917 395.598466,502.061917 C384.700466,494.309917 375.587466,494.635917 371.504466,494.659917 C352.060466,494.770917 324.873466,499.355917 287.514466,482.028917 C266.608466,472.335917 248.308466,457.808917 234.126466,439.646917 C219.944466,421.483917 210.287466,400.208917 205.951466,377.576917 C204.359466,369.179917 202.163466,359.740917 194.856466,354.384917 C192.329466,352.457917 189.214466,351.461917 186.038466,351.566917 L185.879466,351.582917 Z" id="Path"></path>
            <path d="M430.518466,490.473917 C432.818466,493.831917 436.888466,495.757917 440.978466,495.988917 C447.438466,496.354917 453.338466,492.924917 458.288466,489.128917 C468.508466,481.272917 476.598466,470.934917 483.338466,459.950917 C496.468466,438.787917 505.258466,415.227917 509.208466,390.637917 C513.318466,364.205917 511.798466,338.745917 507.668466,312.640917 C505.788466,300.701917 505.418466,282.165917 518.868466,276.721917 C532.588466,271.150917 541.328466,285.349917 546.398466,296.364917 C552.368466,309.297917 554.358466,324.180917 554.358466,338.307917 C554.358466,359.127917 549.208466,379.590917 543.218466,399.399917 C536.958466,420.204917 527.298466,439.775917 518.758466,459.704917 C511.348466,477.070917 501.678466,494.253917 503.358466,513.824917 C505.858466,543.057917 533.538466,545.445917 553.968466,531.867917 C578.378466,515.639917 596.438466,492.478917 608.508466,465.951917 C612.778466,456.552917 616.578466,446.938917 619.988466,437.188917 C624.168466,425.250917 638.178466,392.069917 655.088466,410.462917 C659.068466,414.752917 660.658466,420.713917 661.188466,426.507917 C664.108466,457.268917 652.618466,486.446917 637.818466,512.901917 C625.088466,535.698917 608.658466,556.224917 589.208466,573.643917 C572.808466,588.287917 553.898466,599.008917 533.248466,606.473917 C516.118466,612.634917 497.708466,614.639917 481.128466,622.319917 C472.728466,626.219917 465.848466,636.128917 468.398466,645.655917 C471.398466,656.797917 484.178466,660.721917 494.448466,659.830917 C508.138466,658.644917 521.248466,651.823917 533.218466,645.504917 C571.708466,625.217917 603.908466,593.859917 629.668466,559.110917 C642.608466,541.736917 653.858466,523.169917 663.278466,503.661917 C676.328466,476.449917 686.358466,447.678917 691.988466,417.991917 C695.918466,397.139917 698.358466,375.403917 696.708466,354.177917 C695.438466,338.259917 691.328466,318.800917 678.818466,307.753917 C663.898466,294.573917 642.108466,298.123917 630.308466,313.539917 C623.248466,322.755917 619.958466,334.304917 617.998466,345.748917 C613.748466,370.684917 611.208466,395.889917 605.438466,420.562917 C602.418466,433.479917 599.178466,446.826917 592.248466,458.327917 C587.468466,466.238917 578.058466,478.511917 567.628466,478.359917 C539.148466,477.922917 560.718466,418.103917 563.558466,404.986917 C568.028466,384.397917 572.658466,363.728917 573.818466,342.621917 C576.208466,299.046917 568.118466,254.277917 540.398466,219.457917 C529.438466,205.672917 511.438466,196.074917 493.568466,197.101917 C474.208466,198.215917 457.758466,214.109917 455.908466,233.488917 C454.648466,246.804917 459.488466,254.532917 461.548466,258.058917 C471.368466,274.843917 488.928466,296.093917 492.588466,337.113917 C494.678466,360.072917 491.268466,383.199917 482.648466,404.581917 C474.018466,425.962917 460.428466,444.983917 442.998466,460.070917 C436.538466,465.641917 429.468466,472.271917 428.468466,481.280917 C428.058466,484.432917 428.758466,487.627917 430.438466,490.321917 C430.468466,490.374917 430.488466,490.424917 430.518466,490.473917 L430.518466,490.473917 Z" id="Path"></path>
        </g>
    </g>
</svg>